<svg width="25" height="25" viewBox="0 0 25 25" fill="none" xmlns="http://www.w3.org/2000/svg">
<path d="M16.9147 17.0158C17.4895 16.441 17.394 13.999 17.394 13.999M16.9147 17.0158C16.3399 17.5906 13.898 17.4949 13.898 17.4949M16.9147 17.0158L13.3999 13.5009M7.88496 7.98598C8.45981 7.41117 10.9017 7.50682 10.9017 7.50682M7.88496 7.98598C7.31015 8.56078 7.40588 11.0026 7.40588 11.0026M7.88496 7.98598L11.3999 11.5009" stroke="white" stroke-width="2" stroke-linecap="round" stroke-linejoin="round"/>
<path d="M2.90015 12.5008C2.90015 8.0225 2.90015 5.78335 4.29138 4.3921C5.68263 3.00085 7.92177 3.00085 12.4002 3.00085C16.8784 3.00085 19.1176 3.00085 20.5089 4.3921C21.9001 5.78335 21.9001 8.0225 21.9001 12.5008C21.9001 16.9792 21.9001 19.2184 20.5089 20.6097C19.1176 22.0009 16.8784 22.0009 12.4002 22.0009C7.92177 22.0009 5.68263 22.0009 4.29138 20.6097C2.90015 19.2184 2.90015 16.9792 2.90015 12.5008Z" stroke="white" stroke-width="2"/>
</svg>
