<svg width="34" height="19" viewBox="0 0 34 19" fill="none" xmlns="http://www.w3.org/2000/svg">
<path d="M30.813 1.22391C30.95 1.08676 31.1125 0.977966 31.2914 0.903742C31.4703 0.829515 31.6621 0.791309 31.8557 0.791309C32.0494 0.791309 32.2411 0.829515 32.42 0.903742C32.599 0.977966 32.7615 1.08676 32.8984 1.22391C33.0354 1.36106 33.144 1.52388 33.2181 1.70308C33.2922 1.88228 33.3303 2.07434 33.3303 2.2683C33.3303 2.46226 33.2922 2.65432 33.2181 2.83352C33.144 3.01272 33.0354 3.17554 32.8984 3.31269L18.1605 18.0744C18.0236 18.2116 17.8611 18.3205 17.6822 18.3948C17.5033 18.4691 17.3115 18.5073 17.1178 18.5073C16.9241 18.5073 16.7324 18.4691 16.5534 18.3948C16.3745 18.3205 16.212 18.2116 16.0751 18.0744L1.33718 3.31269C1.06063 3.0357 0.905273 2.66002 0.905273 2.2683C0.905273 1.87658 1.06063 1.5009 1.33718 1.22391C1.61372 0.946922 1.98879 0.791309 2.37989 0.791309C2.77098 0.791309 3.14605 0.946922 3.42259 1.22391C10.9824 8.79691 23.2532 8.79691 30.813 1.22391Z" fill="white"/>
</svg>
