<svg width="30" height="30" viewBox="0 0 30 30" fill="none" xmlns="http://www.w3.org/2000/svg">
<path fill-rule="evenodd" clip-rule="evenodd" d="M10.2902 4.93782L23.6963 4.93782C23.9333 4.93782 24.1606 5.03198 24.3282 5.19959C24.4958 5.3672 24.59 5.59452 24.59 5.83156V19.2377C24.59 19.7313 24.1899 20.1314 23.6963 20.1314C23.2027 20.1314 22.8025 19.7313 22.8025 19.2377V7.98924L6.45344 24.3383C6.10442 24.6873 5.53853 24.6873 5.1895 24.3383C4.84048 23.9893 4.84048 23.4234 5.1895 23.0744L21.5386 6.7253L10.2902 6.7253C9.79657 6.7253 9.39643 6.32516 9.39643 5.83156C9.39643 5.33796 9.79657 4.93782 10.2902 4.93782Z" fill="#C6A45A"/>
</svg>
