<svg width="34" height="18" viewBox="0 0 34 18" fill="none" xmlns="http://www.w3.org/2000/svg">
<path d="M30.813 17.3093C30.95 17.4464 31.1125 17.5552 31.2914 17.6295C31.4703 17.7037 31.6621 17.7419 31.8557 17.7419C32.0494 17.7419 32.2411 17.7037 32.42 17.6295C32.599 17.5552 32.7615 17.4464 32.8984 17.3093C33.0354 17.1721 33.144 17.0093 33.2181 16.8301C33.2922 16.6509 33.3303 16.4589 33.3303 16.2649C33.3303 16.0709 33.2922 15.8789 33.2181 15.6997C33.144 15.5205 33.0354 15.3577 32.8984 15.2205L18.1605 0.458819C18.0236 0.32157 17.8611 0.21269 17.6822 0.138403C17.5033 0.064116 17.3115 0.0258789 17.1178 0.0258789C16.9241 0.0258789 16.7324 0.064116 16.5534 0.138403C16.3745 0.21269 16.212 0.32157 16.0751 0.458819L1.33718 15.2205C1.06063 15.4975 0.905273 15.8732 0.905273 16.2649C0.905273 16.6566 1.06063 17.0323 1.33718 17.3093C1.61372 17.5863 1.98879 17.7419 2.37989 17.7419C2.77098 17.7419 3.14605 17.5863 3.42259 17.3093C10.9824 9.73629 23.2532 9.73629 30.813 17.3093Z" fill="#CEA669"/>
</svg>
