<svg width="60" height="60" viewBox="0 0 60 60" fill="none" xmlns="http://www.w3.org/2000/svg">
<g clip-path="url(#clip0_200_34)">
<path d="M5.58906 39.0247H29.8234V43.4775H44.9724V39.0344H50.991C51.3808 44.3299 51.4115 49.0448 45.9801 52.6388C45.9138 52.6824 45.8604 52.7423 45.7132 52.8733C46.3812 53.4281 47.0395 53.9764 47.6914 54.5182C46.8115 55.3593 46.1046 56.0354 45.2943 56.8118C44.5794 56.0742 43.8062 55.2186 42.9635 54.439C42.7161 54.2093 42.2777 54.1155 41.9187 54.0928C41.3315 54.0573 40.7363 54.1527 40.1443 54.1543C32.2754 54.1592 24.4065 54.1575 16.536 54.1575C16.1591 54.1575 15.7564 54.2303 15.4086 54.1252C14.3589 53.8098 13.6925 54.2966 13.0682 55.0488C12.536 55.6893 11.9295 56.2667 11.3747 56.8522C10.6258 56.0645 9.9481 55.3528 9.1976 54.5619C9.70062 54.1171 10.3395 53.551 11.0577 52.9137C10.5627 52.5595 10.1923 52.3137 9.84134 52.0419C7.21137 50.0153 5.78962 47.327 5.60362 44.0258C5.51142 42.3906 5.58744 40.7456 5.58744 39.0247H5.58906Z" fill="white"/>
<path d="M5.60404 26.7741C5.5911 26.4813 5.56846 26.2177 5.56846 25.954C5.56684 21.6678 5.56199 17.3831 5.56846 13.0969C5.57493 8.38687 8.8438 5.10021 13.5473 5.13417C15.126 5.14549 16.7531 5.11315 18.2703 5.4706C20.9618 6.10626 22.6568 7.9728 23.4753 10.6028C23.6338 11.1139 23.8392 11.3614 24.4005 11.5134C27.5674 12.3723 29.7898 15.3322 29.8302 18.635C29.8367 19.1672 29.8302 19.6993 29.8302 20.2768H14.8397C14.1248 16.4968 16.1789 12.5955 20.4733 11.3775C20.0851 9.69054 18.424 8.26718 16.6804 8.20571C15.3621 8.15881 14.0391 8.15396 12.7208 8.20571C10.4483 8.29467 8.62059 10.3812 8.61088 12.8834C8.59471 17.1955 8.60603 21.5093 8.60603 25.8214C8.60603 26.1158 8.60603 26.4101 8.60603 26.7725H5.6008L5.60404 26.7741Z" fill="white"/>
<path d="M29.7811 35.9984C29.464 35.9984 29.2263 35.9984 28.9885 35.9984C21.2862 35.9984 13.5823 36.0001 5.87996 35.9968C4.22208 35.9968 3.03001 35.2124 2.61109 33.8731C1.98029 31.8578 3.4085 29.9168 5.58559 29.8877C7.90178 29.857 10.218 29.8796 12.5342 29.8796C17.9753 29.8796 23.4148 29.8796 28.8559 29.8796C29.147 29.8796 29.4382 29.8796 29.7811 29.8796V35.9968V35.9984Z" fill="white"/>
<path d="M41.9242 40.5257H32.9101C32.8956 40.241 32.8713 39.9822 32.8713 39.7234C32.8681 36.6001 32.8681 33.4752 32.8713 30.3519C32.8729 28.0923 34.1071 26.8501 36.3569 26.8404C37.1915 26.8372 38.0261 26.8194 38.8608 26.8452C40.7354 26.9051 41.9598 28.1651 41.9646 30.0446C41.9743 33.3037 41.9679 36.5613 41.9646 39.8204C41.9646 40.0323 41.942 40.2426 41.9242 40.5257Z" fill="white"/>
<path d="M45.0255 35.9691V29.8794C46.4909 29.8794 47.9353 29.8746 49.3781 29.881C50.1302 29.8843 50.8985 29.8228 51.6344 29.9441C53.2406 30.2094 54.2854 31.5244 54.2191 33.0593C54.1544 34.5652 53.0432 35.8575 51.4662 35.94C49.3506 36.0516 47.2253 35.9675 45.0271 35.9675L45.0255 35.9691Z" fill="white"/>
</g>
<defs>
<clipPath id="clip0_200_34">
<rect width="51.7585" height="51.7164" fill="white" transform="translate(2.46216 5.13403)"/>
</clipPath>
</defs>
</svg>
