<svg width="28" height="28" viewBox="0 0 28 28" fill="none" xmlns="http://www.w3.org/2000/svg">
<g clip-path="url(#clip0_11_126)">
<path d="M4.26958 17.7616H14.1102V19.5697H20.2616V17.7655H22.7055C22.8638 19.9158 22.8763 21.8304 20.6708 23.2897C20.6439 23.3075 20.6222 23.3318 20.5624 23.385C20.8337 23.6103 21.101 23.8329 21.3657 24.0529C21.0084 24.3945 20.7214 24.669 20.3923 24.9842C20.102 24.6848 19.7881 24.3373 19.4459 24.0207C19.3454 23.9275 19.1674 23.8894 19.0216 23.8802C18.7832 23.8657 18.5415 23.9045 18.3011 23.9052C15.1059 23.9071 11.9106 23.9065 8.71469 23.9065C8.56166 23.9065 8.39812 23.936 8.25691 23.8933C7.83066 23.7653 7.56006 23.9629 7.30654 24.2684C7.09046 24.5284 6.84417 24.7629 6.61889 25.0007C6.3148 24.6808 6.03961 24.3918 5.73486 24.0707C5.93912 23.89 6.19855 23.6602 6.49016 23.4014C6.28919 23.2576 6.13878 23.1577 5.99626 23.0474C4.92833 22.2244 4.35102 21.1329 4.27549 19.7924C4.23805 19.1284 4.26892 18.4604 4.26892 17.7616H4.26958Z" fill="#343434"/>
<path d="M4.27542 12.7871C4.27017 12.6682 4.26097 12.5612 4.26097 12.4541C4.26031 10.7136 4.25834 8.97381 4.26097 7.23333C4.2636 5.32078 5.59096 3.98619 7.50088 3.99998C8.14191 4.00458 8.80263 3.99145 9.41869 4.13659C10.5116 4.39471 11.1999 5.15264 11.5322 6.22057C11.5966 6.42811 11.68 6.5286 11.9079 6.59034C13.1939 6.93909 14.0963 8.141 14.1127 9.48216C14.1154 9.69824 14.1127 9.91432 14.1127 10.1488H8.02565C7.73536 8.61389 8.56947 7.02973 10.3132 6.53517C10.1556 5.85014 9.48109 5.27217 8.77308 5.24722C8.2378 5.22817 7.70055 5.2262 7.16527 5.24722C6.24249 5.28334 5.50032 6.13059 5.49638 7.14663C5.48981 8.89762 5.49441 10.6493 5.49441 12.4002C5.49441 12.5198 5.49441 12.6393 5.49441 12.7864H4.27411L4.27542 12.7871Z" fill="#343434"/>
<path d="M14.0931 16.5327C13.9644 16.5327 13.8678 16.5327 13.7713 16.5327C10.6437 16.5327 7.5154 16.5334 4.38779 16.5321C3.71459 16.5321 3.23054 16.2135 3.06043 15.6697C2.80429 14.8514 3.38423 14.0632 4.26826 14.0514C5.20877 14.0389 6.14929 14.0481 7.0898 14.0481C9.29922 14.0481 11.508 14.0481 13.7174 14.0481C13.8356 14.0481 13.9538 14.0481 14.0931 14.0481V16.5321V16.5327Z" fill="#343434"/>
<path d="M19.0236 18.3711H15.3633C15.3574 18.2555 15.3475 18.1504 15.3475 18.0453C15.3462 16.7771 15.3462 15.5082 15.3475 14.2399C15.3482 13.3224 15.8493 12.818 16.7629 12.8141C17.1018 12.8128 17.4407 12.8055 17.7796 12.816C18.5408 12.8403 19.038 13.352 19.04 14.1152C19.0439 15.4386 19.0413 16.7613 19.04 18.0848C19.04 18.1708 19.0308 18.2562 19.0236 18.3711Z" fill="#343434"/>
<path d="M20.2833 16.5209V14.0482C20.8783 14.0482 21.4648 14.0462 22.0507 14.0488C22.3561 14.0501 22.668 14.0252 22.9669 14.0744C23.6191 14.1821 24.0434 14.7161 24.0164 15.3394C23.9902 15.9509 23.5389 16.4756 22.8986 16.5091C22.0395 16.5544 21.1765 16.5203 20.2839 16.5203L20.2833 16.5209Z" fill="#343434"/>
</g>
<defs>
<clipPath id="clip0_11_126">
<rect width="21.0171" height="21" fill="white" transform="translate(3 4)"/>
</clipPath>
</defs>
</svg>
