<svg width="28" height="28" viewBox="0 0 28 28" fill="none" xmlns="http://www.w3.org/2000/svg">
<g clip-path="url(#clip0_11_122)">
<path d="M14.0118 21.4597C11.0136 21.4597 8.01615 21.4597 5.01794 21.4597C4.71481 21.4597 4.57466 21.5984 4.57466 21.8977C4.57466 21.9752 4.5786 22.0527 4.57388 22.1295C4.56758 22.2225 4.55813 22.3155 4.54081 22.4062C4.47625 22.7372 4.15895 23.0023 3.77945 22.9984C3.39837 22.9946 3.08265 22.7116 3.02517 22.3481C3.01178 22.2628 3.0047 22.1752 3.0047 22.0891C3.00391 20.3279 2.9921 18.5659 3.00863 16.8046C3.01808 15.7783 3.39758 14.8853 4.12509 14.1419C4.56679 13.6907 5.09195 13.3698 5.69269 13.1651C6.1651 13.0046 6.65326 12.9558 7.15086 12.9558C11.7623 12.9574 16.3738 12.9535 20.9853 12.9589C22.3364 12.9605 23.4308 13.4969 24.2418 14.5636C24.6402 15.0884 24.8779 15.6845 24.959 16.3357C24.9866 16.555 24.9984 16.7783 24.9992 17C25.0023 18.7101 25.0015 20.4202 25.0008 22.1302C25.0008 22.3977 24.9338 22.6411 24.7102 22.8178C24.474 23.0046 24.2103 23.0535 23.9292 22.9395C23.6599 22.8295 23.4898 22.6271 23.4513 22.338C23.4316 22.1922 23.4339 22.0426 23.43 21.8953C23.4237 21.6574 23.3237 21.5139 23.1237 21.4698C23.0796 21.4597 23.0332 21.4605 22.9875 21.4605C19.9964 21.4605 17.0053 21.4605 14.0134 21.4605L14.0118 21.4597Z" fill="#343434"/>
<path d="M13.9023 6C15.8471 6 17.791 6 19.735 6C20.3861 6 20.9947 6.14341 21.5199 6.53953C22.1954 7.04884 22.5899 7.71938 22.623 8.56124C22.6513 9.27519 22.6387 9.9907 22.6419 10.7054C22.6442 11.1659 22.6419 11.6264 22.6419 12.0868C22.6419 12.1279 22.6395 12.1713 22.6285 12.2109C22.5946 12.3357 22.5261 12.3853 22.397 12.3612C22.2561 12.3349 22.1199 12.2783 21.9789 12.2628C21.6475 12.2271 21.3152 12.2023 20.9821 12.1853C20.7601 12.1736 20.6916 12.1341 20.6601 11.9194C20.5593 11.2388 19.9192 10.6264 19.1004 10.6357C18.1871 10.6457 17.2738 10.638 16.3612 10.638C15.6817 10.638 15.1015 11.0364 14.8708 11.6643C14.8377 11.7543 14.8251 11.8519 14.8078 11.9465C14.7755 12.1163 14.7117 12.1798 14.5401 12.1822C14.1803 12.186 13.8197 12.186 13.4599 12.1822C13.2945 12.1806 13.2292 12.1163 13.1992 11.9279C13.1575 11.6636 13.0536 11.4279 12.8835 11.2209C12.5757 10.8457 12.1773 10.6419 11.686 10.6395C10.7435 10.6349 9.80106 10.6372 8.85782 10.6388C8.06575 10.6395 7.44611 11.2488 7.34533 11.9178C7.31305 12.1341 7.2477 12.1721 7.02567 12.186C6.65798 12.2101 6.29029 12.2442 5.92338 12.2829C5.81079 12.2946 5.70293 12.3426 5.59113 12.3612C5.47066 12.3806 5.41476 12.3403 5.3809 12.224C5.36752 12.1783 5.36122 12.1295 5.36122 12.0814C5.36043 10.9767 5.34547 9.87209 5.36437 8.76744C5.38405 7.61163 5.92653 6.76202 6.98788 6.24806C7.40832 6.04574 7.86419 6 8.32557 6C10.1845 6 12.0434 6 13.9023 6Z" fill="#343434"/>
</g>
<defs>
<clipPath id="clip0_11_122">
<rect width="22" height="17" fill="white" transform="translate(3 6)"/>
</clipPath>
</defs>
</svg>
