<svg width="24" height="25" viewBox="0 0 24 25" fill="none" xmlns="http://www.w3.org/2000/svg">
<path d="M21.9998 18.0009H1.99976" stroke="white" stroke-width="2" stroke-linecap="round" stroke-linejoin="round"/>
<path d="M21.9998 21.5008V16.5007C21.9998 14.6152 21.9998 13.6723 21.414 13.0865C20.8281 12.5008 19.8854 12.5008 17.9997 12.5008H5.99976C4.11414 12.5008 3.17133 12.5008 2.58555 13.0865C1.99976 13.6723 1.99976 14.6152 1.99976 16.5007V21.5008" stroke="white" stroke-width="2" stroke-linecap="round" stroke-linejoin="round"/>
<path d="M11 12.5008V10.7141C11 10.3335 10.9428 10.2061 10.6497 10.0561C10.0395 9.74369 9.29865 9.50076 8.49997 9.50076C7.70137 9.50076 6.96055 9.74369 6.35025 10.0561C6.05721 10.2061 6 10.3335 6 10.7141V12.5008" stroke="white" stroke-width="2" stroke-linecap="round"/>
<path d="M18.0003 12.5008V10.7141C18.0003 10.3335 17.943 10.2061 17.6499 10.0561C17.0397 9.74369 16.299 9.50076 15.5002 9.50076C14.7015 9.50076 13.9608 9.74369 13.3506 10.0561C13.0575 10.2061 13.0002 10.3335 13.0002 10.7141V12.5008" stroke="white" stroke-width="2" stroke-linecap="round"/>
<path d="M21 12.5007V7.8613C21 7.16966 21 6.82384 20.8079 6.49726C20.6157 6.17068 20.342 6.00164 19.7944 5.66356C17.5869 4.30051 14.8993 3.50073 12 3.50073C9.10065 3.50073 6.41314 4.30051 4.20558 5.66356C3.65804 6.00164 3.38427 6.17068 3.19213 6.49726C3 6.82384 3 7.16966 3 7.8613V12.5007" stroke="white" stroke-width="2" stroke-linecap="round"/>
</svg>
