<svg width="60" height="60" viewBox="0 0 60 60" fill="none" xmlns="http://www.w3.org/2000/svg">
<g clip-path="url(#clip0_200_30)">
<path d="M29.581 47.9232C22.1974 47.9232 14.8157 47.9232 7.43201 47.9232C6.6855 47.9232 6.34036 48.2649 6.34036 49.0018C6.34036 49.1927 6.35006 49.3837 6.33842 49.5727C6.32291 49.8017 6.29965 50.0308 6.25699 50.2542C6.09799 51.0694 5.31658 51.7222 4.38199 51.7127C3.44352 51.7032 2.66599 51.0064 2.52444 50.111C2.49148 49.901 2.47403 49.6853 2.47403 49.4734C2.47209 45.136 2.443 40.7967 2.48372 36.4593C2.50699 33.9317 3.44158 31.7325 5.2332 29.9017C6.32097 28.7906 7.61428 28.0003 9.09372 27.4963C10.2571 27.1011 11.4593 26.9808 12.6847 26.9808C24.0414 26.9847 35.398 26.9751 46.7546 26.9885C50.0819 26.9923 52.7771 28.3134 54.7743 30.9402C55.7554 32.2327 56.341 33.7007 56.5407 35.3043C56.6085 35.8446 56.6376 36.3944 56.6396 36.9404C56.6473 41.1518 56.6454 45.3632 56.6434 49.5746C56.6434 50.2332 56.4786 50.8326 55.928 51.2679C55.3463 51.728 54.6967 51.8483 54.0045 51.5676C53.3414 51.2965 52.9225 50.7983 52.8275 50.0862C52.779 49.7273 52.7849 49.3588 52.7752 48.9961C52.7597 48.41 52.5134 48.0569 52.0209 47.948C51.9123 47.9232 51.7979 47.9251 51.6855 47.9251C44.3193 47.9251 36.9531 47.9251 29.5849 47.9251L29.581 47.9232Z" fill="white"/>
<path d="M29.3116 9.85095C34.1009 9.85095 38.8883 9.85095 43.6756 9.85095C45.2792 9.85095 46.778 10.2041 48.0713 11.1797C49.7349 12.4339 50.7064 14.0852 50.7878 16.1585C50.8576 17.9167 50.8266 19.6788 50.8344 21.4389C50.8402 22.5729 50.8344 23.7069 50.8344 24.8409C50.8344 24.9421 50.8285 25.049 50.8014 25.1463C50.718 25.4537 50.5493 25.5759 50.2313 25.5167C49.8843 25.4518 49.5488 25.3124 49.2017 25.2742C48.3854 25.1864 47.5672 25.1253 46.747 25.0833C46.2002 25.0547 46.0315 24.9573 45.9539 24.4285C45.7057 22.7524 44.1293 21.2442 42.1128 21.2671C39.8636 21.2919 37.6144 21.2729 35.3671 21.2729C33.6937 21.2729 32.2647 22.2541 31.6966 23.8005C31.6151 24.0219 31.5841 24.2624 31.5415 24.4954C31.462 24.9134 31.3049 25.07 30.8822 25.0757C29.9961 25.0853 29.108 25.0853 28.2219 25.0757C27.8147 25.0719 27.6538 24.9134 27.5801 24.4495C27.4773 23.7985 27.2214 23.2182 26.8026 22.7085C26.0444 21.7845 25.0633 21.2824 23.8534 21.2767C21.5324 21.2652 19.2114 21.2709 16.8885 21.2748C14.9379 21.2767 13.4119 22.7772 13.1638 24.4247C13.0843 24.9573 12.9233 25.0509 12.3765 25.0853C11.471 25.1444 10.5655 25.2284 9.66194 25.3239C9.38467 25.3525 9.11903 25.4709 8.84369 25.5167C8.54703 25.5644 8.40936 25.4652 8.32598 25.1788C8.29302 25.0662 8.27751 24.9459 8.27751 24.8275C8.27557 22.1071 8.23873 19.3867 8.28526 16.6663C8.33374 13.8199 9.6697 11.7276 12.2835 10.4619C13.3189 9.96359 14.4415 9.85095 15.5778 9.85095C20.1557 9.85095 24.7337 9.85095 29.3116 9.85095Z" fill="white"/>
</g>
<defs>
<clipPath id="clip0_200_30">
<rect width="54.1791" height="41.8657" fill="white" transform="translate(2.46216 9.85083)"/>
</clipPath>
</defs>
</svg>
