<svg width="25" height="25" viewBox="0 0 25 25" fill="none" xmlns="http://www.w3.org/2000/svg">
<path d="M6.38157 20.5006L5.41187 21.5006M18.0179 20.5006L18.9876 21.5006" stroke="white" stroke-width="2" stroke-linecap="round"/>
<path d="M3.47266 12.5008V13.5007C3.47266 16.8005 3.47266 18.4504 4.46672 19.4756C5.46078 20.5007 7.0607 20.5007 10.2605 20.5007H14.1393C17.3391 20.5007 18.9391 20.5007 19.9332 19.4756C20.9272 18.4504 20.9272 16.8005 20.9272 13.5007V12.5008" stroke="white" stroke-width="2" stroke-linecap="round" stroke-linejoin="round"/>
<path d="M2.50293 12.5008H21.8969" stroke="white" stroke-width="2" stroke-linecap="round"/>
<path d="M4.44238 12.5007V6.02413C4.44238 4.6305 5.53792 3.50073 6.88931 3.50073C7.97366 3.50073 8.92871 4.23671 9.23598 5.30914L9.29089 5.50073" stroke="white" stroke-width="2" stroke-linecap="round"/>
<path d="M8.32104 6.50086L10.7453 4.50085" stroke="white" stroke-width="2" stroke-linecap="round"/>
</svg>
