<svg width="84" height="84" viewBox="0 0 84 84" fill="none" xmlns="http://www.w3.org/2000/svg">
<path d="M65.2498 24.9664L57.9275 17.6441C57.7562 17.4725 57.5528 17.3364 57.3289 17.2435C57.1049 17.1506 56.8649 17.1028 56.6224 17.1028C56.38 17.1028 56.1399 17.1506 55.916 17.2435C55.692 17.3364 55.4886 17.4725 55.3173 17.6441L32.8217 40.1438C32.5135 40.4492 32.3246 40.8546 32.2891 41.287L31.5884 49.3059C31.5656 49.5606 31.5961 49.8173 31.6781 50.0595C31.76 50.3017 31.8916 50.5241 32.0643 50.7127C32.237 50.9012 32.4472 51.0517 32.6813 51.1545C32.9154 51.2572 33.1684 51.3101 33.4241 51.3096H33.5839L41.6069 50.609C42.0388 50.5716 42.4437 50.383 42.7501 50.0763L60.3942 32.4322C60.3942 32.4311 60.3947 32.4301 60.3954 32.4293C60.3962 32.4285 60.3972 32.4281 60.3983 32.4281L65.2498 27.5766C65.4219 27.4056 65.5585 27.2022 65.6517 26.9783C65.7449 26.7543 65.7928 26.5141 65.7928 26.2715C65.7928 26.0289 65.7449 25.7887 65.6517 25.5647C65.5585 25.3408 65.4219 25.1374 65.2498 24.9664ZM59.0912 28.5149L54.3749 23.7986L56.6245 21.5532L61.3367 26.2695L59.0912 28.5149Z" fill="white"/>
<path d="M40.2461 66.1756C37.307 66.1756 34.3967 65.5967 31.6813 64.472C28.9659 63.3472 26.4987 61.6987 24.4204 59.6204C22.3422 57.5421 20.6936 55.0749 19.5689 52.3595C18.4441 49.6441 17.8652 46.7338 17.8652 43.7947C17.8652 40.8556 18.4441 37.9453 19.5689 35.2299C20.6936 32.5146 22.3422 30.0473 24.4204 27.9691C26.4987 25.8908 28.9659 24.2422 31.6813 23.1175C34.3967 21.9927 37.307 21.4138 40.2461 21.4138C41.4746 21.4147 42.701 21.5147 43.9134 21.713C44.3701 21.7883 44.7818 22.0327 45.0667 22.3975C45.3516 22.7624 45.4888 23.221 45.4511 23.6824C45.4134 24.1437 45.2036 24.574 44.8633 24.8878C44.5231 25.2016 44.0772 25.3759 43.6143 25.3762C43.5127 25.376 43.4114 25.3678 43.3111 25.3516C42.2978 25.186 41.2728 25.1024 40.2461 25.1017C36.3353 25.1052 32.5243 26.3362 29.3505 28.6212C26.1767 30.9062 23.8003 34.1298 22.5563 37.8375C21.3123 41.5451 21.2636 45.5497 22.417 49.2866C23.5703 53.0234 25.8676 56.3039 28.9849 58.6654C32.1022 61.027 35.8821 62.3504 39.7916 62.4491C43.7012 62.5477 47.543 61.4167 50.7755 59.2154C54.0079 57.0142 56.4678 53.8538 57.8082 50.1799C59.1487 46.506 59.302 42.504 58.2467 38.7383C58.1813 38.5051 58.1625 38.2612 58.1914 38.0207C58.2203 37.7802 58.2962 37.5477 58.4149 37.3365C58.5336 37.1253 58.6928 36.9396 58.8833 36.7899C59.0738 36.6403 59.2919 36.5296 59.5251 36.4642C59.7584 36.3988 60.0023 36.38 60.2428 36.4089C60.4833 36.4377 60.7158 36.5137 60.927 36.6324C61.1382 36.7511 61.3239 36.9103 61.4736 37.1008C61.6232 37.2913 61.7339 37.5094 61.7993 37.7426C62.3494 39.7129 62.6279 41.7491 62.627 43.7947C62.6297 46.7346 62.0526 49.6461 60.9288 52.3627C59.805 55.0793 58.1566 57.5476 56.0778 59.6264C53.999 61.7052 51.5307 63.3537 48.8141 64.4775C46.0975 65.6012 43.186 66.1783 40.2461 66.1756Z" fill="white"/>
</svg>
