<svg width="28" height="28" viewBox="0 0 28 28" fill="none" xmlns="http://www.w3.org/2000/svg">
<path d="M22.2993 4.57162C22.7424 4.41046 22.9711 3.92056 22.8099 3.47738C22.6488 3.03421 22.1588 2.80559 21.7157 2.96674L7.49227 8.13889V3.76918C7.49227 3.29761 7.10999 2.91533 6.63842 2.91533H4.93073C4.45916 2.91533 4.07688 3.29761 4.07688 3.76918V9.38084L2.93106 9.79751C2.48788 9.95866 2.25926 10.4486 2.42041 10.8917C2.58157 11.3349 3.07147 11.5635 3.51465 11.4024L22.2993 4.57162Z" fill="#343434"/>
<path fill-rule="evenodd" clip-rule="evenodd" d="M4.09846 13.0073L21.1538 6.80531V10.7006L25.7146 12.359C26.1578 12.5202 26.3864 13.0101 26.2253 13.4533C26.0641 13.8965 25.5742 14.1251 25.1311 13.9639L24.569 13.7595V23.4076H25.423C25.8946 23.4076 26.2769 23.7899 26.2769 24.2615C26.2769 24.7331 25.8946 25.1153 25.423 25.1153H3.22304C2.75147 25.1153 2.36919 24.7331 2.36919 24.2615C2.36919 23.7899 2.75147 23.4076 3.22304 23.4076H4.07688V13.015L4.09846 13.0073ZM21.1538 23.4076V12.5177L22.8613 13.1386V23.4076H21.1538ZM10.9077 16.5769C10.4361 16.5769 10.0538 16.9592 10.0538 17.4307V22.5538C10.0538 23.0254 10.4361 23.4076 10.9077 23.4076H14.323C14.7946 23.4076 15.1769 23.0254 15.1769 22.5538V17.4307C15.1769 16.9592 14.7946 16.5769 14.323 16.5769H10.9077Z" fill="#343434"/>
</svg>
