<svg width="122" height="122" viewBox="0 0 122 122" fill="none" xmlns="http://www.w3.org/2000/svg">
<path d="M21.4453 72.914C22.7605 72.914 23.8281 71.8464 23.8281 70.5312C23.8281 69.216 22.7605 68.1484 21.4453 68.1484C20.1301 68.1484 19.0625 69.216 19.0625 70.5312C19.0625 71.8464 20.1301 72.914 21.4453 72.914Z" fill="#A9AFC3"/>
<path d="M61 30.0234C59.6848 30.0234 58.6172 31.091 58.6172 32.4062C58.6172 33.7214 59.6848 34.789 61 34.789C62.3152 34.789 63.3828 33.7214 63.3828 32.4062C63.3828 31.091 62.3152 30.0234 61 30.0234Z" fill="#A9AFC3"/>
<path d="M80.0625 6.19524C58.6107 6.19524 41.0039 20.9854 39.6422 39.6151C19.2124 40.6399 0 55.3715 0 75.2968C0 83.6236 3.29498 91.6917 9.29297 98.0843C10.4797 102.977 9.03886 108.162 5.46371 111.737C4.78238 112.418 4.57854 113.443 4.94713 114.334C5.31572 115.224 6.18414 115.805 7.14844 115.805C13.9441 115.805 20.4931 113.14 25.3593 108.444C30.0998 110.06 36.2848 111.039 41.9375 111.039C63.3865 111.039 80.9914 96.2525 82.3569 77.6266C87.3459 77.405 92.535 76.4836 96.6407 75.0846C101.507 79.7804 108.056 82.4452 114.852 82.4452C115.816 82.4452 116.684 81.8644 117.053 80.9746C117.421 80.0838 117.218 79.059 116.536 78.3777C112.961 74.8026 111.52 69.6171 112.707 64.7249C118.705 58.3323 122 50.2642 122 41.9374C122 21.2339 101.308 6.19524 80.0625 6.19524ZM41.9375 106.273C36.3137 106.273 29.9052 105.169 25.6124 103.461C24.6928 103.095 23.642 103.336 22.9727 104.066C20.0957 107.212 16.3548 109.405 12.2789 110.413C14.5249 106.11 15.0983 101.037 13.7319 96.2302C13.6239 95.8513 13.4238 95.5051 13.1492 95.2231C7.74321 89.6551 4.76562 82.5783 4.76562 75.2968C4.76562 58.5054 21.7878 44.3202 41.9375 44.3202C60.9646 44.3202 77.6797 57.5514 77.6797 75.2968C77.6797 92.3777 61.646 106.273 41.9375 106.273ZM108.851 61.8637C108.576 62.1467 108.376 62.4929 108.268 62.8708C106.902 67.6774 107.475 72.7502 109.721 77.0532C105.645 76.0461 101.904 73.8522 99.0273 70.7071C98.358 69.9774 97.3072 69.7354 96.3876 70.1021C92.6672 71.582 87.3599 72.6068 82.3494 72.8544C81.6532 63.8435 77.1584 55.3743 69.4739 49.0859H100.555C101.871 49.0859 102.938 48.0192 102.938 46.703C102.938 45.3869 101.871 44.3202 100.555 44.3202H62.1532C56.7444 41.567 50.6711 39.9614 44.4199 39.6244C45.7891 23.6205 61.2522 10.9609 80.0625 10.9609C100.212 10.9609 117.234 25.146 117.234 41.9374C117.234 49.219 114.257 56.2957 108.851 61.8637Z" fill="#A9AFC3"/>
<path d="M61 82.4453H21.4453C20.1292 82.4453 19.0625 83.5119 19.0625 84.8281C19.0625 86.1442 20.1292 87.2109 21.4453 87.2109H61C62.3161 87.2109 63.3828 86.1442 63.3828 84.8281C63.3828 83.5119 62.3161 82.4453 61 82.4453Z" fill="#A9AFC3"/>
<path d="M61 68.1484H30.9766C29.6604 68.1484 28.5938 69.2151 28.5938 70.5312C28.5938 71.8473 29.6604 72.914 30.9766 72.914H61C62.3161 72.914 63.3828 71.8473 63.3828 70.5312C63.3828 69.2151 62.3161 68.1484 61 68.1484Z" fill="#A9AFC3"/>
<path d="M100.555 30.0234H70.5312C69.2151 30.0234 68.1484 31.09 68.1484 32.4062C68.1484 33.7223 69.2151 34.789 70.5312 34.789H100.555C101.871 34.789 102.938 33.7223 102.938 32.4062C102.938 31.09 101.871 30.0234 100.555 30.0234Z" fill="#A9AFC3"/>
</svg>
