<svg width="122" height="122" viewBox="0 0 122 122" fill="none" xmlns="http://www.w3.org/2000/svg">
<g clip-path="url(#clip0_274_472)">
<path d="M104.134 17.8666C92.6121 6.34495 77.2937 0 61 0C44.7063 0 29.3879 6.34495 17.8663 17.8666C6.34519 29.3879 0 44.7063 0 61C0 77.2937 6.34519 92.6121 17.8663 104.133C29.3879 115.655 44.7063 122 61 122C77.2937 122 92.6121 115.655 104.134 104.133C115.655 92.6121 122 77.2937 122 61C122 44.7063 115.655 29.3879 104.134 17.8666ZM61 117.234C29.9922 117.234 4.76562 92.0078 4.76562 61C4.76562 29.9922 29.9922 4.76562 61 4.76562C92.0078 4.76562 117.234 29.9922 117.234 61C117.234 92.0078 92.0078 117.234 61 117.234Z" fill="#A9AFC3"/>
<path d="M51.0064 106.632L50.8592 106.6C49.5755 106.315 48.3017 107.124 48.0162 108.409C47.7308 109.694 48.5407 110.966 49.8255 111.252L49.9923 111.289C50.1631 111.326 50.3338 111.344 50.5017 111.344C51.5981 111.344 52.5848 110.582 52.8276 109.468C53.1076 108.182 52.2922 106.912 51.0064 106.632Z" fill="#A9AFC3"/>
<path d="M60.9629 100.665C59.6471 100.665 58.5801 101.732 58.5801 103.048V110.086C58.5801 111.402 59.6471 112.469 60.9629 112.469C62.2787 112.469 63.3457 111.402 63.3457 110.086V103.048C63.3457 101.732 62.2787 100.665 60.9629 100.665Z" fill="#A9AFC3"/>
<path d="M109.468 69.1713C108.183 68.8908 106.913 69.7065 106.632 70.9922C102.654 89.2505 88.2278 103.33 69.8804 106.86C68.588 107.109 67.7421 108.358 67.9906 109.651C68.21 110.791 69.2084 111.583 70.3281 111.583C70.4773 111.583 70.6291 111.569 70.7809 111.54C80.67 109.637 89.7247 104.892 96.9658 97.8172C104.196 90.7534 109.149 81.8283 111.289 72.0066C111.569 70.7208 110.753 69.4515 109.468 69.1713Z" fill="#A9AFC3"/>
<path d="M42.9959 104.107C28.5115 98.0505 18.0979 85.2553 15.1392 69.8802C14.8907 68.588 13.643 67.7407 12.3492 67.9906C11.0567 68.2391 10.2108 69.4885 10.4593 70.7807C12.0632 79.1138 15.7654 87.0033 21.1665 93.5959C26.5052 100.112 33.418 105.267 41.1574 108.504C41.4576 108.63 41.7693 108.689 42.0757 108.689C43.0076 108.689 43.8928 108.139 44.2748 107.225C44.7826 106.011 44.21 104.615 42.9959 104.107Z" fill="#A9AFC3"/>
<path d="M110.086 58.6533H103.652C102.337 58.6533 101.27 59.7201 101.27 61.0361C101.27 62.3522 102.337 63.4189 103.652 63.4189H110.086C111.402 63.4189 112.469 62.3522 112.469 61.0361C112.469 59.7201 111.402 58.6533 110.086 58.6533Z" fill="#A9AFC3"/>
<path d="M18.8242 58.5809H11.9141C10.5983 58.5809 9.53125 59.6477 9.53125 60.9637C9.53125 62.2798 10.5983 63.3465 11.9141 63.3465H18.8242C20.14 63.3465 21.207 62.2798 21.207 60.9637C21.207 59.6477 20.14 58.5809 18.8242 58.5809Z" fill="#A9AFC3"/>
<path d="M61 52.8984C56.5327 52.8984 52.8984 56.5326 52.8984 60.9999C52.8984 65.4672 56.5327 69.1015 61 69.1015C65.4673 69.1015 69.1016 65.4672 69.1016 60.9999C69.1016 56.5326 65.4673 52.8984 61 52.8984ZM61 64.3359C59.1605 64.3359 57.6641 62.8395 57.6641 60.9999C57.6641 59.1604 59.1605 57.664 61 57.664C62.8395 57.664 64.3359 59.1604 64.3359 60.9999C64.3359 62.8395 62.8395 64.3359 61 64.3359Z" fill="#A9AFC3"/>
<path d="M55.28 58.6172H44.3984C43.0826 58.6172 42.0156 59.684 42.0156 61C42.0156 62.3161 43.0826 63.3828 44.3984 63.3828H55.28C56.5958 63.3828 57.6628 62.3161 57.6628 61C57.6628 59.684 56.5958 58.6172 55.28 58.6172Z" fill="#A9AFC3"/>
<path d="M61 30.5793C59.6842 30.5793 58.6172 31.6461 58.6172 32.9621V55.2812C58.6172 56.5972 59.6842 57.664 61 57.664C62.3158 57.664 63.3828 56.5972 63.3828 55.2812V32.9621C63.3828 31.6461 62.3158 30.5793 61 30.5793Z" fill="#A9AFC3"/>
<path d="M111.54 51.2195C108.328 34.5291 97.0742 20.5215 81.4356 13.7491C80.2282 13.2261 78.8252 13.7813 78.3022 14.9886C77.7794 16.1963 78.3344 17.5993 79.542 18.122C93.7338 24.268 103.946 36.9775 106.86 52.12C107.079 53.2602 108.078 54.053 109.197 54.053C109.347 54.053 109.498 54.0389 109.65 54.0096C110.942 53.7611 111.788 52.5117 111.54 51.2195Z" fill="#A9AFC3"/>
<path d="M72.0626 10.7237L72.0002 10.7101C70.7144 10.4328 69.446 11.251 69.1692 12.5377C68.892 13.8242 69.7103 15.0916 70.9968 15.3688L71.0247 15.3749C71.1996 15.414 71.374 15.4326 71.546 15.4326C72.6374 15.4326 73.6219 14.6777 73.8693 13.5683C74.1559 12.2837 73.347 11.0104 72.0626 10.7237Z" fill="#A9AFC3"/>
<path d="M54.0074 12.3499C53.7587 11.0577 52.5096 10.2103 51.2172 10.4603C41.328 12.3632 32.2733 17.1086 25.0322 24.1831C17.8023 31.247 12.8494 40.1721 10.7094 49.9938C10.4294 51.2795 11.2445 52.5489 12.5303 52.8291C12.7012 52.8662 12.872 52.8841 13.04 52.8841C14.1363 52.8841 15.123 52.123 15.3659 51.0081C19.3444 32.7496 33.7705 18.6705 52.1176 15.1399C53.4101 14.8914 54.256 13.6421 54.0074 12.3499Z" fill="#A9AFC3"/>
<path d="M61.0371 9.53127C59.7213 9.53127 58.6543 10.5981 58.6543 11.9141V17.2535C58.6543 18.5695 59.7213 19.6363 61.0371 19.6363C62.3532 19.6363 63.4199 18.5695 63.4199 17.2535V11.9141C63.4199 10.5981 62.3529 9.53127 61.0371 9.53127Z" fill="#A9AFC3"/>
</g>
<defs>
<clipPath id="clip0_274_472">
<rect width="122" height="122" fill="white"/>
</clipPath>
</defs>
</svg>
