<svg width="24" height="25" viewBox="0 0 24 25" fill="none" xmlns="http://www.w3.org/2000/svg">
<g clip-path="url(#clip0_13_266)">
<path d="M2.26958 16.2615H12.1102V18.0696H18.2616V16.2654H20.7055C20.8638 18.4157 20.8763 20.3303 18.6708 21.7896C18.6439 21.8074 18.6222 21.8317 18.5624 21.8849C18.8337 22.1101 19.101 22.3328 19.3657 22.5528C19.0084 22.8943 18.7214 23.1689 18.3923 23.4841C18.102 23.1846 17.7881 22.8372 17.4459 22.5206C17.3454 22.4274 17.1674 22.3893 17.0216 22.3801C16.7832 22.3656 16.5415 22.4044 16.3011 22.405C13.1059 22.407 9.9106 22.4063 6.71469 22.4063C6.56166 22.4063 6.39812 22.4359 6.25691 22.3932C5.83066 22.2651 5.56006 22.4628 5.30654 22.7682C5.09046 23.0283 4.84417 23.2628 4.61889 23.5005C4.3148 23.1807 4.03961 22.8917 3.73486 22.5705C3.93912 22.3899 4.19855 22.16 4.49016 21.9013C4.28919 21.7574 4.13878 21.6576 3.99626 21.5473C2.92833 20.7243 2.35102 19.6327 2.27549 18.2922C2.23805 17.6282 2.26892 16.9603 2.26892 16.2615H2.26958Z" fill="white"/>
<path d="M2.27542 11.2872C2.27017 11.1683 2.26097 11.0613 2.26097 10.9542C2.26031 9.21375 2.25834 7.47393 2.26097 5.73345C2.2636 3.8209 3.59096 2.48631 5.50088 2.50011C6.14191 2.5047 6.80263 2.49157 7.41869 2.63672C8.51158 2.89483 9.19989 3.65276 9.53222 4.72069C9.59659 4.92824 9.68 5.02872 9.9079 5.09046C11.1939 5.43921 12.0963 6.64113 12.1127 7.98228C12.1154 8.19836 12.1127 8.41444 12.1127 8.64891H6.02565C5.73536 7.11401 6.56947 5.52985 8.31323 5.03529C8.1556 4.35027 7.48109 3.7723 6.77308 3.74734C6.2378 3.72829 5.70055 3.72632 5.16527 3.74734C4.24249 3.78346 3.50032 4.63071 3.49638 5.64676C3.48981 7.39774 3.49441 9.14938 3.49441 10.9004C3.49441 11.0199 3.49441 11.1394 3.49441 11.2866H2.27411L2.27542 11.2872Z" fill="white"/>
<path d="M12.0931 15.0328C11.9644 15.0328 11.8678 15.0328 11.7713 15.0328C8.64366 15.0328 5.5154 15.0335 2.38779 15.0321C1.71459 15.0321 1.23054 14.7136 1.06043 14.1698C0.804289 13.3514 1.38423 12.5633 2.26826 12.5515C3.20877 12.539 4.14929 12.5482 5.0898 12.5482C7.29922 12.5482 9.50799 12.5482 11.7174 12.5482C11.8356 12.5482 11.9538 12.5482 12.0931 12.5482V15.0321V15.0328Z" fill="white"/>
<path d="M17.0236 16.871H13.3633C13.3574 16.7554 13.3475 16.6503 13.3475 16.5452C13.3462 15.277 13.3462 14.0081 13.3475 12.7398C13.3482 11.8223 13.8493 11.3179 14.7629 11.3139C15.1018 11.3126 15.4407 11.3054 15.7796 11.3159C16.5408 11.3402 17.038 11.8519 17.04 12.615C17.0439 13.9385 17.0413 15.2612 17.04 16.5846C17.04 16.6707 17.0308 16.7561 17.0236 16.871Z" fill="white"/>
<path d="M18.2832 15.021V12.5482C18.8782 12.5482 19.4648 12.5462 20.0506 12.5489C20.356 12.5502 20.668 12.5252 20.9668 12.5745C21.619 12.6822 22.0433 13.2162 22.0164 13.8395C21.9901 14.4509 21.5389 14.9757 20.8985 15.0092C20.0394 15.0545 19.1764 15.0204 18.2839 15.0204L18.2832 15.021Z" fill="white"/>
</g>
<defs>
<clipPath id="clip0_13_266">
<rect width="21.0171" height="21" fill="white" transform="translate(1 2.5)"/>
</clipPath>
</defs>
</svg>
