<svg width="122" height="122" viewBox="0 0 122 122" fill="none" xmlns="http://www.w3.org/2000/svg">
<g clip-path="url(#clip0_274_309)">
<path d="M92.3734 110.567C91.7133 109.429 90.2558 109.042 89.1168 109.702L89.025 109.755C87.887 110.415 87.4998 111.873 88.1598 113.011C88.6019 113.773 89.4013 114.198 90.2229 114.198C90.6284 114.198 91.0402 114.094 91.4164 113.876L91.5082 113.823C92.6462 113.163 93.0334 111.705 92.3734 110.567Z" fill="#A9AFC3"/>
<path d="M113.825 30.5204C105.681 16.4129 92.5295 6.32197 76.7949 2.10582C61.0607 -2.11033 44.6259 0.0535015 30.5185 8.19819C16.4113 16.3429 6.32008 29.4941 2.10417 45.2285C-2.11174 60.963 0.0518541 77.3979 8.19655 91.5051C15.5025 104.16 27.1144 113.777 40.8933 118.585C47.4248 120.864 54.2432 122.001 61.0511 122.001C68.4534 122.001 75.8422 120.656 82.8265 117.972C84.0548 117.499 84.6677 116.121 84.1954 114.893C83.7231 113.664 82.3444 113.051 81.1166 113.524C62.5259 120.669 42.4002 117.423 27.3639 106.136L29.4987 94.9929L30.5273 94.6588C34.4144 93.3959 36.5494 89.206 35.287 85.3186L34.5321 82.9956C34.3574 82.4581 34.3584 81.8898 34.5345 81.3527C35.1967 79.334 34.9601 77.1253 33.8852 75.2925C32.8103 73.4599 30.9982 72.1748 28.913 71.7671L23.5349 70.7163L13.1583 62.8268C12.5366 62.354 11.7229 62.2161 10.9799 62.4572L4.90469 64.4307C4.77578 62.2578 4.77387 60.0856 4.89635 57.9249C5.13606 58.1481 5.29214 58.2999 5.38816 58.3995C5.50707 58.5975 5.65432 58.7791 5.82684 58.9364C6.32294 59.3882 6.77234 59.5931 7.71593 59.5931C8.58304 59.5928 9.86666 59.4201 11.9862 59.107C13.9963 58.8098 15.996 58.4751 16.0157 58.4717C16.8171 58.3376 17.4945 57.8038 17.8133 57.0568C18.1322 56.3096 18.048 55.4515 17.5903 54.78L14.6687 50.4948L18.8534 47.5024C19.1322 47.303 19.3648 47.0459 19.5352 46.7485L26.0219 35.4242L28.6366 32.6225C31.3084 29.7588 32.0709 25.5691 30.5788 21.9482C29.6986 19.8125 28.1612 18.0344 26.2383 16.8361C28.3208 15.1989 30.5414 13.6872 32.9013 12.325C41.56 7.32585 51.0093 4.90324 60.3592 4.81055L56.1044 10.1478L40.3266 15.679C39.6859 15.9035 39.1712 16.391 38.9124 17.0187L34.5061 27.7003C34.1933 28.4592 34.2926 29.3252 34.7694 29.9933L41.2049 39.008C40.2833 39.8489 39.3861 41.0736 38.3146 42.5943C37.8447 43.2613 37.401 43.8911 37.0943 44.2442C36.8277 44.5516 36.5608 44.8518 36.2963 45.1492C34.9122 46.7064 33.481 48.3169 32.4643 50.4681C30.2287 55.2001 30.6803 60.7001 33.6426 64.8219C36.507 68.8072 41.2292 70.833 46.2694 70.2402C47.0905 70.1439 47.8561 69.9545 48.5969 69.771C50.6397 69.2656 51.2869 69.2151 51.9421 69.8284C52.2609 70.127 52.2903 70.1835 52.2838 71.1959C52.2793 71.8403 52.2743 72.6418 52.4964 73.5571C52.8521 75.0213 53.7717 76.0333 54.5103 76.8463C54.8775 77.2502 55.2573 77.6681 55.3743 77.9486C56.1175 79.7295 55.7939 80.7158 55.0848 82.877C55.0241 83.0619 54.9621 83.2506 54.8999 83.4441C53.8226 86.7788 55.3243 90.0866 56.6491 93.0046C57.0795 93.9523 57.4857 94.8468 57.7519 95.6374C59.8943 101.995 61.5003 103.45 62.7892 104.037C63.4642 104.343 64.1629 104.478 64.8687 104.478C68.3035 104.478 71.8877 101.288 73.5342 99.2667C74.5684 97.9971 74.8231 96.7259 75.0089 95.7973C75.1016 95.3355 75.1746 94.9709 75.3137 94.7327C75.5267 94.3681 75.7776 94.0855 76.0953 93.7276C76.7341 93.0082 77.5293 92.1132 78.0442 90.4908C78.4354 89.2584 78.7197 88.9562 79.6612 87.9535C79.8251 87.7794 79.9997 87.593 80.1873 87.3891C83.3609 83.9356 82.5436 81.2976 81.678 78.5045C80.9495 76.1543 82.2236 74.6513 85.3041 71.7826C86.6395 70.539 88.0201 69.2532 89.0873 67.7082C89.5544 67.032 90.9752 64.9749 90.096 62.9359C89.2341 60.9367 87.0436 60.6008 85.2836 60.331C84.5886 60.2243 83.5382 60.0632 83.2039 59.8447C81.7297 58.8809 80.8278 56.8693 79.9554 54.9237C79.7817 54.5365 79.6104 54.1543 79.4367 53.7833C79.1269 53.1214 78.8174 52.3205 78.4898 51.4727C77.6229 49.229 76.6405 46.6859 74.968 44.913C73.4646 43.3201 70.6308 42.5529 68.1305 41.8757C67.2896 41.6481 66.4959 41.4332 65.9724 41.2399C65.5337 41.0779 65.0576 41.0486 64.6034 41.1554C63.3865 41.4406 62.6274 41.7549 62.0636 42.2066C61.9147 42.326 61.4736 42.718 61.2153 43.348C60.343 42.9294 59.1435 42.1299 58.4053 41.6379C58.39 41.6276 58.3745 41.6174 58.3593 41.6071C58.608 40.6116 58.3829 39.8126 58.147 39.3137C56.8159 36.4981 52.3975 36.7186 51.5259 36.7927C51.0307 36.8341 50.4043 36.8563 49.7416 36.8796C48.7008 36.9166 47.5504 36.958 46.4121 37.0857L46.4707 36.9223C47.3347 34.5149 49.6337 32.8975 52.1914 32.8975H53.546C54.8615 32.8975 55.9286 31.8305 55.9286 30.5149C55.9286 29.1994 54.8615 28.1323 53.546 28.1323H52.1914C48.3941 28.1323 44.9169 30.1308 42.968 33.2763L39.414 28.2979L42.9106 19.8225L58.3281 14.4173C58.7508 14.2691 59.1234 14.0046 59.403 13.6541L66.2566 5.05717C83.7689 6.72299 100.253 16.5416 109.699 32.9025C112.215 37.2604 114.076 41.8483 115.314 46.5407L114.304 47.4414C112.985 48.6178 112.213 50.3051 112.183 52.071C112.183 52.0903 112.182 52.1094 112.182 52.1284L110.536 47.603C110.291 46.9277 109.93 46.3084 109.463 45.7625L106.528 42.3258C105.39 40.9936 103.733 40.2299 101.981 40.2299H98.3882C97.1126 40.2299 95.947 40.9285 95.3453 42.0525C94.7436 43.1767 94.8094 44.5344 95.5169 45.5952L95.8805 46.1411C93.5587 48.1377 90.8732 49.7354 88.0139 50.8129L83.0886 41.3786V39.2739C83.0886 38.6229 82.8222 37.9998 82.3511 37.5506L77.916 33.3166C77.6713 33.0831 77.3796 32.9044 77.0606 32.7922L73.0681 31.3892C71.826 30.9521 70.4664 31.6058 70.0303 32.847C69.594 34.0886 70.2467 35.4485 71.4881 35.8848L74.9966 37.1179L78.3234 40.2935V41.9634C78.3234 42.3472 78.4164 42.7256 78.5941 43.0661L84.7601 54.877C85.3146 55.9398 86.5732 56.4254 87.6965 56.0098L89.4919 55.3479C93.663 53.8095 97.5291 51.335 100.673 48.192C101.476 47.3888 101.6 46.1309 100.97 45.1856L100.843 44.9953H101.981C102.337 44.9953 102.674 45.1504 102.905 45.4211L105.84 48.8578C105.935 48.9686 106.008 49.0939 106.058 49.2314L109.297 58.1391C109.576 58.9044 110.226 59.4744 111.02 59.6507C111.192 59.6886 111.364 59.7072 111.536 59.7072C112.161 59.7072 112.77 59.4611 113.221 59.0093L114.763 57.4674C115.739 56.4907 116.412 55.2549 116.733 53.885C119.117 72.9964 111.624 92.7661 95.7842 105.198C94.7489 106.01 94.5683 107.508 95.381 108.543C96.1933 109.579 97.6907 109.759 98.7263 108.947C110.162 99.9713 118.018 87.1339 120.848 72.7991C123.704 58.3261 121.21 43.3108 113.825 30.5204ZM11.2663 67.3746L21.0914 74.845C21.3818 75.0659 21.7188 75.2169 22.0767 75.2868L27.9984 76.4438C28.7543 76.5916 29.3848 77.0386 29.7743 77.7029C30.1639 78.367 30.2459 79.1355 30.0062 79.8672C29.513 81.3715 29.5106 82.9625 29.9998 84.4677L30.7546 86.7905C31.2057 88.1787 30.4427 89.6754 29.0547 90.1264L26.6869 90.8958C25.8608 91.1642 25.2465 91.8609 25.0833 92.7135L23.1775 102.661C18.9878 98.8268 15.3092 94.2947 12.3233 89.1228C8.6805 82.8138 6.40443 76.0845 5.40127 69.2802L11.2663 67.3746ZM25.1526 29.3714L22.3497 32.3744C22.2246 32.5086 22.1153 32.6568 22.024 32.816L15.659 43.9285L10.002 47.9735C8.94832 48.727 8.68955 50.1836 9.41917 51.2539L11.5349 54.3573C10.3153 54.5389 9.22092 54.6885 8.49321 54.7679C8.35334 54.6337 8.20703 54.4977 8.05572 54.3571C7.48933 53.831 6.70228 53.1283 5.52899 52.1015C7.46407 40.1248 13.2352 28.8417 22.3119 20.229C24.0499 20.7763 25.4762 22.0728 26.173 23.7639C26.9569 25.6659 26.5561 27.8671 25.1526 29.3714ZM44.5797 42.3918C45.6424 41.7937 48.1091 41.7063 49.9101 41.6424C50.6318 41.6169 51.3138 41.5926 51.9228 41.5416C52.2443 41.5147 52.6012 41.5197 52.9379 41.5459C52.7875 41.9319 52.7387 42.3556 52.804 42.7759C52.9186 43.5153 53.3744 44.1575 54.034 44.5104C54.481 44.7496 55.1032 45.1644 55.7618 45.6036C57.6239 46.845 59.7349 48.2521 61.7179 48.3784C63.5212 48.4954 64.5246 47.4677 64.9544 47.0299C64.9887 46.9951 65.0211 46.9604 65.0555 46.9287C65.2976 46.7314 65.5244 46.4669 65.6931 46.1478C66.0741 46.2567 66.4744 46.3651 66.8848 46.4764C68.2956 46.8584 70.9217 47.5694 71.5019 48.1842C72.5325 49.2767 73.3357 51.3562 74.0446 53.1907C74.4028 54.1178 74.7411 54.9928 75.1207 55.8042C75.2837 56.1523 75.4441 56.5109 75.607 56.8741C76.7065 59.3264 77.9527 62.1062 80.5964 63.8342C81.7952 64.618 83.2647 64.8431 84.5614 65.0421C84.7182 65.0662 84.8979 65.0938 85.0804 65.1238C84.3107 66.1975 83.2149 67.2178 82.0571 68.2961C79.1074 71.043 75.4364 74.4618 77.127 79.9158C77.925 82.4912 77.9622 82.7695 76.6791 84.1654C76.5042 84.3557 76.3412 84.5292 76.1884 84.6917C75.0895 85.8617 74.2214 86.7857 73.5028 89.0494C73.294 89.7068 73.0236 90.0113 72.5325 90.5642C72.1398 91.0064 71.6506 91.5573 71.1995 92.3293C70.6591 93.2543 70.4804 94.145 70.3372 94.8606C70.1959 95.5647 70.1158 95.9181 69.8394 96.2574C69.2101 97.0299 68.0364 98.1517 66.8314 98.9173C65.7114 99.6284 65.0576 99.7256 64.8348 99.7122C64.5806 99.4397 63.6596 98.2461 62.268 94.116C61.9249 93.0971 61.4488 92.0486 60.9885 91.0348C59.9736 88.7997 58.9245 86.4884 59.4349 84.9088C59.4952 84.7225 59.5547 84.5404 59.6134 84.3624C60.4288 81.8771 61.1984 79.5303 59.7725 76.1133C59.3384 75.0728 58.6471 74.3124 58.0378 73.6414C57.6435 73.2075 57.1967 72.7157 57.1278 72.4326C57.044 72.0873 57.0466 71.6887 57.0497 71.2272C57.0578 69.9821 57.0702 68.1009 55.1999 66.3495C52.5631 63.8814 49.4883 64.6418 47.4534 65.145C46.8284 65.2994 46.2379 65.4457 45.7146 65.5072C42.3673 65.8994 39.3787 64.6365 37.513 62.0402C35.5612 59.3245 35.2779 55.67 36.7739 52.5033C37.498 50.9709 38.5919 49.7397 39.8586 48.3147C40.1353 48.0033 40.4146 47.6893 40.6938 47.3676C41.1585 46.8319 41.6698 46.1066 42.2105 45.3386C42.856 44.4224 44.0579 42.7163 44.5797 42.3918Z" fill="#A9AFC3"/>
<path d="M97.7019 82.0348L96.5556 77.7138C96.3051 76.7702 95.5045 76.0749 94.5354 75.9591C93.5651 75.8457 92.6242 76.3308 92.1583 77.1889C91.8972 77.6702 91.662 78.1801 91.4347 78.6731C91.0522 79.5026 90.6567 80.3604 90.2452 80.8339C90.014 81.0998 89.4202 81.3864 88.8465 81.6633C87.4747 82.3252 85.5958 83.2319 84.8781 85.5199C84.4325 86.9391 84.5989 88.0619 84.7204 88.8816C84.8255 89.5923 84.8498 89.8387 84.6594 90.2857L84.6355 90.3413C83.8771 92.121 82.466 95.4343 84.4447 98.251C85.8565 100.261 87.341 100.778 88.4945 100.778C88.7197 100.779 88.9327 100.759 89.1298 100.727C91.5602 100.33 93.3874 97.8014 94.8804 92.7698L97.6831 83.3241C97.8077 82.904 97.8144 82.458 97.7019 82.0348ZM90.3124 91.4142C89.5513 93.9796 88.8779 95.1772 88.4893 95.7081C88.4445 95.6509 88.3959 95.5861 88.3439 95.512C87.8886 94.8634 88.5691 93.2659 89.0194 92.2087L89.0435 92.1529C89.7698 90.4482 89.5756 89.1391 89.4343 88.1831C89.3435 87.571 89.3111 87.3079 89.4248 86.9465C89.5182 86.6493 90.0765 86.361 90.9176 85.955C91.2905 85.7748 91.7011 85.5768 92.1154 85.3371L90.3124 91.4142Z" fill="#A9AFC3"/>
<path d="M64.3425 28.3221L64.1816 28.2659C62.9409 27.8312 61.5803 28.4839 61.1447 29.7256C60.7091 30.9675 61.3627 32.3269 62.6044 32.7625L62.765 32.8187C63.026 32.9102 63.2919 32.9536 63.5537 32.9536C64.5374 32.9536 65.4581 32.3395 65.8022 31.359C66.2377 30.1171 65.5841 28.7574 64.3425 28.3221Z" fill="#A9AFC3"/>
</g>
<defs>
<clipPath id="clip0_274_309">
<rect width="122" height="122" fill="white"/>
</clipPath>
</defs>
</svg>
