<svg width="60" height="60" viewBox="0 0 60 60" fill="none" xmlns="http://www.w3.org/2000/svg">
<path fill-rule="evenodd" clip-rule="evenodd" d="M60 20.625C60 32.0159 50.766 41.25 39.375 41.25H26.25V48.75H18.75V56.25L15 60H0V45L19.3632 25.6368C18.9626 24.0324 18.75 22.3535 18.75 20.625C18.75 9.23411 27.9841 0 39.375 0C50.766 0 60 9.23411 60 20.625ZM48.75 15C48.75 17.0711 47.0711 18.75 45 18.75C42.9289 18.75 41.25 17.0711 41.25 15C41.25 12.929 42.9289 11.25 45 11.25C47.0711 11.25 48.75 12.929 48.75 15Z" fill="white"/>
</svg>
