<svg width="61" height="60" viewBox="0 0 61 60" fill="none" xmlns="http://www.w3.org/2000/svg">
<path d="M30.475 5C16.675 5 5.5 16.2 5.5 30C5.5 43.8 16.675 55 30.475 55C44.3 55 55.5 43.8 55.5 30C55.5 16.2 44.3 5 30.475 5ZM47.8 20H40.425C39.625 16.875 38.475 13.875 36.975 11.1C41.575 12.675 45.4 15.875 47.8 20ZM30.5 10.1C32.575 13.1 34.2 16.425 35.275 20H25.725C26.8 16.425 28.425 13.1 30.5 10.1ZM11.15 35C10.75 33.4 10.5 31.725 10.5 30C10.5 28.275 10.75 26.6 11.15 25H19.6C19.4 26.65 19.25 28.3 19.25 30C19.25 31.7 19.4 33.35 19.6 35H11.15ZM13.2 40H20.575C21.375 43.125 22.525 46.125 24.025 48.9C19.425 47.325 15.6 44.15 13.2 40ZM20.575 20H13.2C15.6 15.85 19.425 12.675 24.025 11.1C22.525 13.875 21.375 16.875 20.575 20ZM30.5 49.9C28.425 46.9 26.8 43.575 25.725 40H35.275C34.2 43.575 32.575 46.9 30.5 49.9ZM36.35 35H24.65C24.425 33.35 24.25 31.7 24.25 30C24.25 28.3 24.425 26.625 24.65 25H36.35C36.575 26.625 36.75 28.3 36.75 30C36.75 31.7 36.575 33.35 36.35 35ZM36.975 48.9C38.475 46.125 39.625 43.125 40.425 40H47.8C45.4 44.125 41.575 47.325 36.975 48.9ZM41.4 35C41.6 33.35 41.75 31.7 41.75 30C41.75 28.3 41.6 26.65 41.4 25H49.85C50.25 26.6 50.5 28.275 50.5 30C50.5 31.725 50.25 33.4 49.85 35H41.4Z" fill="white"/>
</svg>
