<svg width="52" height="52" viewBox="0 0 52 52" fill="none" xmlns="http://www.w3.org/2000/svg">
<rect width="52" height="52" rx="26" fill="#343434"/>
<path d="M34.47 16.0001H17.53C17.3396 15.9975 17.1505 16.0324 16.9736 16.1028C16.7966 16.1733 16.6353 16.2779 16.4988 16.4107C16.3623 16.5434 16.2533 16.7018 16.178 16.8767C16.1027 17.0517 16.0626 17.2397 16.06 17.4301V34.5701C16.0626 34.7606 16.1027 34.9486 16.178 35.1235C16.2533 35.2985 16.3623 35.4568 16.4988 35.5896C16.6353 35.7224 16.7966 35.827 16.9736 35.8975C17.1505 35.9679 17.3396 36.0028 17.53 36.0001H34.47C34.6604 36.0028 34.8495 35.9679 35.0264 35.8975C35.2034 35.827 35.3647 35.7224 35.5012 35.5896C35.6377 35.4568 35.7467 35.2985 35.822 35.1235C35.8973 34.9486 35.9374 34.7606 35.94 34.5701V17.4301C35.9374 17.2397 35.8973 17.0517 35.822 16.8767C35.7467 16.7018 35.6377 16.5434 35.5012 16.4107C35.3647 16.2779 35.2034 16.1733 35.0264 16.1028C34.8495 16.0324 34.6604 15.9975 34.47 16.0001ZM22.09 32.7401H19.09V23.7401H22.09V32.7401ZM20.59 22.4801C20.1763 22.4801 19.7795 22.3158 19.4869 22.0232C19.1944 21.7307 19.03 21.3339 19.03 20.9201C19.03 20.5064 19.1944 20.1096 19.4869 19.8171C19.7795 19.5245 20.1763 19.3601 20.59 19.3601C20.8097 19.3352 21.0322 19.357 21.2429 19.424C21.4536 19.4911 21.6477 19.6018 21.8127 19.7491C21.9776 19.8964 22.1095 20.0768 22.1999 20.2786C22.2902 20.4804 22.3369 20.699 22.3369 20.9201C22.3369 21.1412 22.2902 21.3599 22.1999 21.5617C22.1095 21.7635 21.9776 21.9439 21.8127 22.0912C21.6477 22.2385 21.4536 22.3492 21.2429 22.4163C21.0322 22.4833 20.8097 22.5051 20.59 22.4801ZM32.91 32.7401H29.91V27.9101C29.91 26.7001 29.48 25.9101 28.39 25.9101C28.0527 25.9126 27.7242 26.0184 27.4488 26.2133C27.1735 26.4082 26.9645 26.6828 26.85 27.0001C26.7717 27.2352 26.7378 27.4827 26.75 27.7301V32.7301H23.75C23.75 32.7301 23.75 24.5501 23.75 23.7301H26.75V25.0001C27.0225 24.5272 27.4189 24.1377 27.8964 23.8733C28.374 23.609 28.9146 23.48 29.46 23.5001C31.46 23.5001 32.91 24.7901 32.91 27.5601V32.7401Z" fill="white"/>
</svg>
