<svg width="24" height="29" viewBox="0 0 24 29" fill="none" xmlns="http://www.w3.org/2000/svg">
<path fill-rule="evenodd" clip-rule="evenodd" d="M5.66492 12.0151C5.66492 10.2852 6.3521 8.62623 7.57528 7.40304C8.79847 6.17986 10.4575 5.49268 12.1873 5.49268C13.9172 5.49268 15.5762 6.17986 16.7993 7.40304C18.0225 8.62623 18.7097 10.2852 18.7097 12.0151C18.7097 13.7449 18.0225 15.4039 16.7993 16.6271C15.5762 17.8503 13.9172 18.5375 12.1873 18.5375C10.4575 18.5375 8.79847 17.8503 7.57528 16.6271C6.3521 15.4039 5.66492 13.7449 5.66492 12.0151ZM12.1873 7.55238C11.0037 7.55238 9.86863 8.02256 9.03171 8.85947C8.1948 9.69639 7.72462 10.8315 7.72462 12.0151C7.72462 13.1987 8.1948 14.3338 9.03171 15.1707C9.86863 16.0076 11.0037 16.4778 12.1873 16.4778C13.3709 16.4778 14.506 16.0076 15.3429 15.1707C16.1798 14.3338 16.65 13.1987 16.65 12.0151C16.65 10.8315 16.1798 9.69639 15.3429 8.85947C14.506 8.02256 13.3709 7.55238 12.1873 7.55238Z" fill="white"/>
<path fill-rule="evenodd" clip-rule="evenodd" d="M0.548598 10.4454C0.783303 7.59866 2.07996 4.94424 4.18111 3.00919C6.28226 1.07414 9.03426 -8.69961e-06 11.8907 0H12.4839C15.3403 -8.69961e-06 18.0923 1.07414 20.1935 3.00919C22.2946 4.94424 23.5913 7.59866 23.826 10.4454C24.0872 13.6164 23.1076 16.765 21.0935 19.228L14.512 27.276C14.2304 27.6204 13.8757 27.8979 13.4736 28.0885C13.0716 28.2791 12.6322 28.378 12.1873 28.378C11.7424 28.378 11.303 28.2791 10.901 28.0885C10.4989 27.8979 10.1442 27.6204 9.86258 27.276L3.28114 19.228C1.26691 16.765 0.28727 13.6164 0.548598 10.4454ZM11.8907 2.0597C9.55154 2.06006 7.29802 2.93992 5.57746 4.52465C3.8569 6.10937 2.7951 8.2831 2.60281 10.6143C2.3853 13.2533 3.20052 15.8737 4.87672 17.9235L11.4582 25.9729C11.5466 26.0812 11.6581 26.1684 11.7844 26.2283C11.9108 26.2883 12.0488 26.3193 12.1887 26.3193C12.3285 26.3193 12.4666 26.2883 12.5929 26.2283C12.7193 26.1684 12.8307 26.0812 12.9192 25.9729L19.5006 17.9235C21.1758 15.8733 21.9901 13.253 21.7718 10.6143C21.5795 8.28286 20.5175 6.10894 18.7966 4.52418C17.0758 2.93942 14.8219 2.05971 12.4825 2.0597H11.8907Z" fill="white"/>
</svg>
