<svg width="28" height="28" viewBox="0 0 28 28" fill="none" xmlns="http://www.w3.org/2000/svg">
<path d="M6.51456 4.99561H21.9623C22.9123 4.99554 23.8262 5.35898 24.5166 6.01135C25.2071 6.66372 25.6218 7.55558 25.6755 8.50397L25.6813 8.71452V19.5852C25.6813 20.5351 25.3179 21.449 24.6655 22.1395C24.0131 22.8299 23.1213 23.2446 22.1729 23.2984L21.9623 23.3041H6.51456C5.56465 23.3041 4.65073 22.9407 3.96027 22.2883C3.26981 21.636 2.85516 20.7441 2.80138 19.7957L2.79565 19.5852V8.71452C2.79559 7.76461 3.15903 6.85068 3.8114 6.16022C4.46377 5.46976 5.35563 5.05511 6.30402 5.00133L6.51456 4.99561ZM23.9648 11.1438L14.639 16.0528C14.5337 16.1084 14.4179 16.1415 14.2991 16.15C14.1803 16.1585 14.0611 16.1421 13.949 16.102L13.8391 16.0539L4.51207 11.145V19.5852C4.51209 20.0877 4.70108 20.5719 5.04151 20.9416C5.38194 21.3113 5.84894 21.5394 6.34979 21.5808L6.51456 21.5877H21.9623C22.4651 21.5876 22.9494 21.3985 23.3191 21.0578C23.6888 20.7171 23.9169 20.2499 23.958 19.7488L23.9648 19.5852V11.1438ZM21.9623 6.71203H6.51456C6.01201 6.71204 5.52783 6.90103 5.15815 7.24146C4.78846 7.58189 4.56029 8.04889 4.51894 8.54974L4.51207 8.71452V9.20541L14.2385 14.3249L23.9648 9.20427V8.71452C23.9648 8.21178 23.7757 7.72745 23.435 7.35773C23.0943 6.98802 22.627 6.75997 22.126 6.71889L21.9623 6.71203Z" fill="white"/>
</svg>
