<svg width="24" height="25" viewBox="0 0 24 25" fill="none" xmlns="http://www.w3.org/2000/svg">
<path d="M20.8472 15.3556L16.4306 13.3766L16.4184 13.3709C16.1892 13.2729 15.939 13.2335 15.6907 13.2564C15.4424 13.2793 15.2037 13.3638 14.9963 13.5022C14.9718 13.5183 14.9483 13.5358 14.9259 13.5547L12.6441 15.5C11.1984 14.7978 9.70595 13.3166 9.00376 11.8897L10.9519 9.57312C10.9706 9.54968 10.9884 9.52624 11.0053 9.50093C11.1407 9.29403 11.2229 9.05686 11.2445 8.81053C11.2661 8.5642 11.2264 8.31636 11.1291 8.08906V8.07781L9.14438 3.65374C9.0157 3.3568 8.79444 3.10944 8.51362 2.94859C8.2328 2.78774 7.9075 2.72202 7.58626 2.76124C6.31592 2.92841 5.14986 3.55228 4.30588 4.51633C3.4619 5.48039 2.99771 6.7187 3.00001 7.99999C3.00001 15.4437 9.05626 21.5 16.5 21.5C17.7813 21.5023 19.0196 21.0381 19.9837 20.1941C20.9477 19.3501 21.5716 18.1841 21.7388 16.9137C21.7781 16.5926 21.7125 16.2674 21.5518 15.9866C21.3911 15.7058 21.144 15.4845 20.8472 15.3556ZM16.5 20C13.3185 19.9965 10.2682 18.7311 8.01856 16.4814C5.76888 14.2318 4.50348 11.1815 4.50001 7.99999C4.49648 7.08451 4.82631 6.19905 5.42789 5.50897C6.02947 4.81888 6.86167 4.37137 7.76907 4.24999C7.7687 4.25373 7.7687 4.2575 7.76907 4.26124L9.73782 8.66749L7.80001 10.9869C7.7803 11.0095 7.76243 11.0336 7.74657 11.0591C7.60549 11.2755 7.52273 11.5248 7.5063 11.7827C7.48988 12.0406 7.54035 12.2983 7.65282 12.5309C8.5022 14.2681 10.2525 16.0053 12.0084 16.8537C12.2428 16.9652 12.502 17.0139 12.7608 16.9952C13.0196 16.9764 13.2692 16.8909 13.485 16.7469C13.5091 16.7307 13.5323 16.7132 13.5544 16.6944L15.8334 14.75L20.2397 16.7234H20.25C20.1301 17.6321 19.6833 18.466 18.9931 19.0691C18.3028 19.6721 17.4166 20.0031 16.5 20Z" fill="#CEA669"/>
</svg>
