<svg width="52" height="52" viewBox="0 0 52 52" fill="none" xmlns="http://www.w3.org/2000/svg">
<g filter="url(#filter0_ii_25_108)">
<circle cx="26" cy="26" r="26" fill="white"/>
</g>
<path d="M24.0376 19.3162L24.6866 20.4791C25.2723 21.5286 25.0372 22.9053 24.1147 23.8278C24.1147 23.8278 22.9959 24.9468 25.0245 26.9755C27.0525 29.0035 28.1722 27.8853 28.1722 27.8853C29.0947 26.9628 30.4714 26.7277 31.5209 27.3134L32.6838 27.9624C34.2686 28.8468 34.4557 31.0692 33.0628 32.4622C32.2258 33.2992 31.2004 33.9505 30.0669 33.9934C28.1588 34.0658 24.9183 33.5829 21.6677 30.3323C18.4171 27.0817 17.9342 23.8412 18.0066 21.9331C18.0495 20.7996 18.7008 19.7742 19.5378 18.9372C20.9308 17.5443 23.1532 17.7314 24.0376 19.3162Z" fill="#353635"/>
<defs>
<filter id="filter0_ii_25_108" x="0" y="0" width="52" height="56" filterUnits="userSpaceOnUse" color-interpolation-filters="sRGB">
<feFlood flood-opacity="0" result="BackgroundImageFix"/>
<feBlend mode="normal" in="SourceGraphic" in2="BackgroundImageFix" result="shape"/>
<feColorMatrix in="SourceAlpha" type="matrix" values="0 0 0 0 0 0 0 0 0 0 0 0 0 0 0 0 0 0 127 0" result="hardAlpha"/>
<feOffset dy="4"/>
<feGaussianBlur stdDeviation="2"/>
<feComposite in2="hardAlpha" operator="arithmetic" k2="-1" k3="1"/>
<feColorMatrix type="matrix" values="0 0 0 0 0 0 0 0 0 0 0 0 0 0 0 0 0 0 0.05 0"/>
<feBlend mode="normal" in2="shape" result="effect1_innerShadow_25_108"/>
<feColorMatrix in="SourceAlpha" type="matrix" values="0 0 0 0 0 0 0 0 0 0 0 0 0 0 0 0 0 0 127 0" result="hardAlpha"/>
<feOffset/>
<feGaussianBlur stdDeviation="2"/>
<feComposite in2="hardAlpha" operator="arithmetic" k2="-1" k3="1"/>
<feColorMatrix type="matrix" values="0 0 0 0 0 0 0 0 0 0 0 0 0 0 0 0 0 0 0.05 0"/>
<feBlend mode="normal" in2="effect1_innerShadow_25_108" result="effect2_innerShadow_25_108"/>
</filter>
</defs>
</svg>
