<svg width="28" height="28" viewBox="0 0 28 28" fill="none" xmlns="http://www.w3.org/2000/svg">
<path d="M14.323 8.89224C12.9083 8.89224 11.7615 10.0391 11.7615 11.4538C11.7615 12.8685 12.9083 14.0153 14.323 14.0153C15.7377 14.0153 16.8846 12.8685 16.8846 11.4538C16.8846 10.0391 15.7377 8.89224 14.323 8.89224Z" fill="#343434"/>
<path fill-rule="evenodd" clip-rule="evenodd" d="M2.36917 5.90378C2.36917 4.72486 3.32487 3.76917 4.50379 3.76917H24.1422C25.3212 3.76917 26.2769 4.72487 26.2769 5.90378V17.0038C26.2769 18.1827 25.3212 19.1384 24.1422 19.1384H4.50379C3.32487 19.1384 2.36917 18.1827 2.36917 17.0038V5.90378ZM10.0538 11.4538C10.0538 9.09595 11.9652 7.18455 14.323 7.18455C16.6808 7.18455 18.5922 9.09595 18.5922 11.4538C18.5922 13.8116 16.6808 15.723 14.323 15.723C11.9652 15.723 10.0538 13.8116 10.0538 11.4538ZM22.0076 10.5999C21.5361 10.5999 21.1538 10.9822 21.1538 11.4538V11.4623C21.1538 11.9339 21.5361 12.3162 22.0076 12.3162H22.0162C22.4877 12.3162 22.87 11.9339 22.87 11.4623V11.4538C22.87 10.9822 22.4877 10.5999 22.0162 10.5999H22.0076ZM5.78456 11.4538C5.78456 10.9822 6.16684 10.5999 6.6384 10.5999H6.64694C7.11851 10.5999 7.50079 10.9822 7.50079 11.4538V11.4623C7.50079 11.9339 7.11851 12.3162 6.64694 12.3162H6.6384C6.16684 12.3162 5.78456 11.9339 5.78456 11.4623V11.4538Z" fill="#343434"/>
<path d="M3.22302 20.8461C2.75145 20.8461 2.36917 21.2284 2.36917 21.6999C2.36917 22.1715 2.75145 22.5538 3.22302 22.5538C9.37076 22.5538 15.3251 23.376 20.9828 24.916C22.3382 25.2849 23.7153 24.2806 23.7153 22.8442V21.6999C23.7153 21.2284 23.333 20.8461 22.8615 20.8461H3.22302Z" fill="#343434"/>
</svg>
