<svg width="28" height="27" viewBox="0 0 28 27" fill="none" xmlns="http://www.w3.org/2000/svg">
<g clip-path="url(#clip0_350_333)">
<path d="M19.9526 14.4881C19.6263 14.1613 19.0958 14.1613 18.7695 14.4881L18.1059 15.1516L16.7788 13.8245L19.7075 10.8959H21.0346C24.3193 10.8959 26.0551 8.8705 26.0551 5.03857C26.0551 4.74863 25.9049 4.47919 25.6581 4.3269C25.4116 4.1742 25.1033 4.16039 24.8439 4.29009L22.0366 5.69375L21.2161 4.87331L22.6198 2.06598C22.7495 1.80659 22.7357 1.49866 22.583 1.25182C22.4307 1.00497 22.1613 0.854776 21.8713 0.854776C18.0394 0.854776 16.014 2.59063 16.014 5.87532V7.202L13.0854 10.1307L8.41123 5.45694L9.07478 4.7934C9.25719 4.61098 9.34505 4.35535 9.31367 4.09972C9.28229 3.84409 9.13461 3.61691 8.9137 3.48429L4.72991 0.974014C4.40107 0.776121 3.97934 0.828418 3.70781 1.09995L2.87105 1.9367C2.59953 2.20823 2.54765 2.62954 2.74512 2.9588L5.2554 7.14259C5.38802 7.3635 5.61478 7.51119 5.87083 7.54256C5.90472 7.54675 5.93903 7.54884 5.97292 7.54884C6.1934 7.54884 6.40677 7.46182 6.5645 7.30367L7.22805 6.64012L11.9022 11.3143L2.0343 21.1821C1.94225 21.2738 1.87322 21.3859 1.83222 21.5093L0.995461 24.0196C0.895468 24.3204 0.973705 24.6518 1.19754 24.8756L2.0343 25.7123C2.1937 25.8717 2.40749 25.9575 2.62588 25.9575C2.71416 25.9575 2.80369 25.9433 2.8903 25.9144L5.40057 25.0777C5.52399 25.0367 5.6357 24.9672 5.72775 24.8756L15.5956 15.0077L16.9227 16.3348L16.2592 16.9983C15.9324 17.3251 15.9324 17.8548 16.2592 18.1815L23.79 25.7123C23.9532 25.8759 24.1674 25.9575 24.3816 25.9575C24.5958 25.9575 24.81 25.8759 24.9732 25.7123L27.4835 23.2021C27.8102 22.8753 27.8102 22.3456 27.4835 22.0189L19.9526 14.4881ZM6.13901 5.36239L4.64707 2.87596L7.1335 4.3679L6.13901 5.36239ZM4.68389 23.5527L2.85181 24.1635L2.74638 24.0581L3.35721 22.226L17.4424 8.14043C17.5992 7.98354 17.6875 7.77058 17.6875 7.54884V5.87532C17.6875 4.45911 18.0515 3.0157 20.4672 2.6287L19.4493 4.66454C19.2882 4.98669 19.3514 5.37578 19.6062 5.63057L21.2797 7.30409C21.5345 7.55888 21.924 7.62206 22.2458 7.46098L24.2816 6.44306C23.8942 8.85837 22.4508 9.22236 21.0346 9.22236H19.361C19.1393 9.22236 18.9263 9.31063 18.7695 9.46753L4.68389 23.5527ZM24.3816 23.9372L18.0344 17.5899L19.361 16.2633L25.7083 22.6105L24.3816 23.9372Z" fill="white"/>
</g>
<defs>
<clipPath id="clip0_350_333">
<rect width="26.7763" height="26.7763" fill="white" transform="translate(0.952637 0.0180206)"/>
</clipPath>
</defs>
</svg>
