<svg width="36" height="35" viewBox="0 0 36 35" fill="none" xmlns="http://www.w3.org/2000/svg">
<path fill-rule="evenodd" clip-rule="evenodd" d="M20.3002 7.80602C20.3002 5.14216 22.4695 2.98267 25.1454 2.98267C27.8214 2.98267 29.9907 5.14216 29.9907 7.80602C29.9907 10.4699 27.8214 12.6294 25.1454 12.6294C23.7942 12.6294 22.573 12.0785 21.6952 11.1922L14.9877 15.7591C15.0497 16.0672 15.0822 16.3855 15.0822 16.7107C15.0822 17.3546 14.9549 17.9701 14.7242 18.5327L22.079 23.3649C22.9136 22.6852 23.9818 22.2761 25.1454 22.2761C27.8214 22.2761 29.9907 24.4356 29.9907 27.0995C29.9907 29.7633 27.8214 31.9228 25.1454 31.9228C22.4695 31.9228 20.3002 29.7633 20.3002 27.0995C20.3002 26.4017 20.4495 25.7376 20.7179 25.138L13.4226 20.3449C12.5716 21.0845 11.4569 21.534 10.2369 21.534C7.56091 21.534 5.3916 19.3745 5.3916 16.7107C5.3916 14.0468 7.56091 11.8873 10.2369 11.8873C11.7757 11.8873 13.1454 12.6013 14.0323 13.7125L20.533 9.28644C20.3818 8.8193 20.3002 8.32154 20.3002 7.80602Z" fill="#C6A45A"/>
</svg>
