<svg width="36" height="35" viewBox="0 0 36 35" fill="none" xmlns="http://www.w3.org/2000/svg">
<path d="M17.961 31.9057C25.8585 31.9057 32.2608 25.5035 32.2608 17.6059C32.2608 9.70833 25.8585 3.30608 17.961 3.30608C10.0634 3.30608 3.66113 9.70833 3.66113 17.6059C3.66113 25.5035 10.0634 31.9057 17.961 31.9057Z" fill="#C6A45A"/>
<path d="M27.5003 17.6055C27.5032 17.8014 27.4788 17.9969 27.4274 18.186C27.3759 18.3751 27.298 18.5564 27.1957 18.7237C27.0938 18.891 26.9687 19.0433 26.8243 19.1759C26.6798 19.3086 26.5175 19.4201 26.342 19.5073C26.3459 19.5595 26.3492 19.6121 26.351 19.6646C26.3553 19.7695 26.3553 19.8744 26.351 19.9792C26.3492 20.0318 26.3459 20.0843 26.342 20.1365C26.342 23.3397 22.6098 25.9423 18.0052 25.9423C13.4007 25.9423 9.66841 23.3397 9.66841 20.1365C9.66447 20.0843 9.66126 20.0318 9.65947 19.9792C9.65517 19.8744 9.65517 19.7695 9.65947 19.6646C9.66126 19.6121 9.66447 19.5595 9.66841 19.5073C9.3934 19.3809 9.14915 19.1963 8.95255 18.9662C8.75595 18.736 8.6117 18.466 8.52978 18.1746C8.448 17.8831 8.43058 17.5773 8.47873 17.2784C8.52688 16.9795 8.63944 16.6947 8.80863 16.4436C8.97767 16.1926 9.1993 15.9813 9.45814 15.8245C9.71698 15.6677 10.0068 15.5691 10.3076 15.5356C10.6084 15.5018 10.913 15.5339 11.2001 15.6296C11.4873 15.7253 11.7502 15.8823 11.9707 16.0897C12.38 15.8123 12.8088 15.5648 13.2537 15.3493C13.6988 15.1341 14.1589 14.951 14.6304 14.8023C15.102 14.6536 15.5839 14.5396 16.0719 14.4606C16.5599 14.3816 17.0532 14.3383 17.5476 14.3308L18.6058 9.36875C18.6176 9.31119 18.6408 9.25685 18.6741 9.20823C18.707 9.15997 18.7495 9.1185 18.7985 9.08669C18.8478 9.05487 18.9029 9.03306 18.9608 9.02234C19.0184 9.01197 19.0777 9.01304 19.1349 9.02555L22.6384 9.72625C22.9919 9.11886 23.7341 8.8586 24.3894 9.11171C25.0447 9.36482 25.4193 10.0566 25.2727 10.7437C25.1265 11.4308 24.5023 11.9098 23.8009 11.8737C23.0992 11.8376 22.5275 11.2971 22.4525 10.5985L19.3923 9.95504L18.4628 14.4166C18.9511 14.427 19.4384 14.4727 19.9203 14.5532C20.8854 14.714 21.8221 15.0134 22.7016 15.4419C23.1409 15.6557 23.5642 15.9008 23.9682 16.1755C24.2587 15.8966 24.6238 15.7077 25.0193 15.6317C25.4148 15.5555 25.8239 15.5953 26.1972 15.7465C26.5706 15.8976 26.8923 16.1534 27.1235 16.4833C27.3548 16.8131 27.4856 17.2029 27.5003 17.6055ZM13.3091 19.5828C13.3814 19.7562 13.4865 19.9138 13.6195 20.0464C13.7521 20.1794 13.9097 20.2845 14.0831 20.3567C14.2567 20.4285 14.4426 20.4654 14.6304 20.4654C15.2089 20.4654 15.7301 20.1169 15.9518 19.5828C16.173 19.0483 16.0504 18.4334 15.6414 18.0244C15.2325 17.6155 14.6176 17.4928 14.0831 17.7141C13.549 17.9358 13.2005 18.457 13.2005 19.0354C13.2005 19.2231 13.2373 19.409 13.3091 19.5828ZM21.4994 23.0154C21.5727 22.9439 21.6145 22.8463 21.6159 22.7441C21.6173 22.6415 21.5777 22.5428 21.5062 22.4695C21.4347 22.3963 21.3371 22.3544 21.2348 22.353C21.1322 22.3516 21.0336 22.3913 20.951 22.4531C20.736 22.6073 20.5082 22.7431 20.2703 22.8589C20.0323 22.9747 19.785 23.0703 19.531 23.1445C19.2772 23.2185 19.0173 23.2711 18.7545 23.3014C18.4914 23.3318 18.2265 23.3397 17.9623 23.3254C17.6985 23.3372 17.4339 23.3265 17.1719 23.2936C16.9098 23.261 16.651 23.206 16.3983 23.1291C16.1452 23.0526 15.8996 22.9547 15.6633 22.8367C15.4269 22.7187 15.201 22.5807 14.9879 22.4245C14.9139 22.3637 14.8199 22.3326 14.7241 22.3373C14.6283 22.3419 14.5379 22.3823 14.4699 22.4499C14.4024 22.5178 14.362 22.6083 14.3573 22.7041C14.3527 22.7999 14.3838 22.8939 14.4446 22.9679C14.6959 23.1574 14.9629 23.3247 15.2428 23.4684C15.5228 23.6121 15.8148 23.7311 16.1151 23.8248C16.4154 23.9185 16.7232 23.986 17.0353 24.0272C17.3474 24.0679 17.6624 24.0819 17.9766 24.069C18.2908 24.0819 18.6058 24.0679 18.9179 24.0272C19.543 23.9449 20.1493 23.7559 20.7104 23.4684C20.9903 23.3247 21.2573 23.1574 21.5087 22.9679L21.4994 23.0154ZM21.237 20.5798C21.4307 20.582 21.6231 20.5444 21.8022 20.4701C21.9813 20.3954 22.1432 20.2852 22.2784 20.1462C22.4135 20.0071 22.5186 19.8419 22.5879 19.6607C22.6574 19.4797 22.6891 19.2864 22.6813 19.0926C22.6813 18.5142 22.3327 17.993 21.7986 17.7713C21.2641 17.55 20.6492 17.6727 20.2403 18.0816C19.8313 18.4906 19.7087 19.1055 19.93 19.64C20.1516 20.1741 20.6728 20.5226 21.2513 20.5226L21.237 20.5798Z" fill="#1F1F1F"/>
</svg>
