<svg width="60" height="60" viewBox="0 0 60 60" fill="none" xmlns="http://www.w3.org/2000/svg">
<path d="M30.0004 33.8386C34.1401 33.8386 43.873 28.8566 43.873 16.9191C43.8731 7.57492 42.6118 0 30.0004 0C17.3893 0 16.1279 7.57492 16.1279 16.9193C16.1279 28.8566 25.8608 33.8386 30.0004 33.8386ZM18.2013 14.0956C19.1757 12.211 21.2836 10.0331 25.8167 10.1298C25.8167 10.1298 28.5186 16.6835 41.7833 13.7404C41.8368 14.7873 41.8537 15.8554 41.8537 16.9193C41.8537 22.7543 39.2772 26.3697 37.1157 28.3751C34.3922 30.9021 31.3684 31.8193 30.0004 31.8193C28.6325 31.8193 25.6087 30.9021 22.8852 28.3751C20.7237 26.3697 18.1472 22.7543 18.1472 16.9193C18.1474 15.9754 18.1611 15.0282 18.2013 14.0956Z" fill="white"/>
<path d="M55.755 51.1905C55.0469 46.7866 53.5887 41.1139 50.6642 39.0981C48.6673 37.7212 41.6998 33.9987 38.7245 32.4091L38.6731 32.3816C38.333 32.1999 37.9177 32.2363 37.6143 32.4744C36.0558 33.6981 34.3484 34.5227 32.5399 34.9255C32.2204 34.9967 31.9582 35.2237 31.842 35.5296L30.0003 40.3841L28.1586 35.5296C28.0424 35.2237 27.7802 34.9967 27.4607 34.9255C25.6522 34.5227 23.9448 33.6981 22.3863 32.4744C22.0829 32.2363 21.6676 32.1997 21.3275 32.3816C18.3876 33.9525 11.3349 37.7509 9.3451 39.0921C5.97864 41.36 4.50656 49.5681 4.24574 51.1905C4.21983 51.3514 4.23493 51.516 4.28915 51.6696C4.40961 52.0097 7.49929 60 30.0003 60C52.5013 60 55.591 52.0097 55.7114 51.6696C55.7658 51.516 55.7809 51.3513 55.755 51.1905ZM45.3864 48.5032L40.9822 49.8759L36.5779 48.5032V46.1335H45.3864V48.5032Z" fill="white"/>
</svg>
