<svg width="18" height="17" viewBox="0 0 18 17" fill="none" xmlns="http://www.w3.org/2000/svg">
<path d="M17.3979 6.13565L12.0567 5.3853L9.66906 0.706323C9.60385 0.578215 9.49656 0.474509 9.36403 0.411472C9.03165 0.252862 8.62775 0.385037 8.46156 0.706323L6.0739 5.3853L0.732689 6.13565C0.585433 6.15598 0.450798 6.22308 0.347718 6.32476C0.223101 6.44857 0.154431 6.61514 0.156797 6.78786C0.159164 6.96059 0.232374 7.12534 0.36034 7.24591L4.22477 10.8878L3.31178 16.0304C3.29037 16.1501 3.30407 16.2731 3.35132 16.3856C3.39856 16.4981 3.47747 16.5955 3.57909 16.6669C3.68072 16.7382 3.80098 16.7806 3.92626 16.7892C4.05154 16.7979 4.17682 16.7724 4.28788 16.7157L9.06531 14.2878L13.8427 16.7157C13.9732 16.7828 14.1246 16.8052 14.2698 16.7808C14.6358 16.7198 14.8819 16.3843 14.8188 16.0304L13.9058 10.8878L17.7703 7.24591C17.8755 7.14627 17.9449 7.01613 17.9659 6.87379C18.0227 6.51794 17.7661 6.18852 17.3979 6.13565Z" fill="#CEA669"/>
</svg>
