<svg width="28" height="29" viewBox="0 0 28 29" fill="none" xmlns="http://www.w3.org/2000/svg">
<path fill-rule="evenodd" clip-rule="evenodd" d="M7.06726 3.08402C8.45985 1.69944 10.753 1.94546 11.919 3.50397L13.3631 5.43094C14.3128 6.6988 14.2282 8.47015 13.101 9.5904L12.8287 9.86274C12.798 9.97708 12.7948 10.0971 12.8196 10.2129C12.8916 10.6798 13.2818 11.6684 14.9159 13.2933C16.5499 14.9182 17.5454 15.3072 18.0192 15.3805C18.1384 15.4058 18.262 15.4023 18.3796 15.3702L18.8465 14.9056C19.8489 13.9101 21.3868 13.7235 22.6272 14.3975L24.8128 15.5876C26.6859 16.6037 27.1585 19.1486 25.6252 20.6739L23.9992 22.2896C23.4865 22.7988 22.7977 23.2234 21.9578 23.3023C19.8866 23.4957 15.0612 23.2485 9.98861 18.2057C5.25472 13.4981 4.34616 9.39244 4.23059 7.36935C4.17338 6.34637 4.65626 5.48129 5.27189 4.87024L7.06726 3.08402ZM10.5459 4.53268C9.96572 3.758 8.88552 3.69621 8.27676 4.30154L6.48025 6.08661C6.10263 6.46194 5.92184 6.87617 5.94472 7.27209C6.03626 8.8798 6.7686 12.5838 11.1993 16.9893C15.8473 21.6099 20.1395 21.7484 21.7987 21.5928C22.1374 21.5619 22.4738 21.3856 22.7885 21.0733L24.4134 19.4564C25.0748 18.7996 24.9295 17.6026 23.9935 17.0946L21.8079 15.9057C21.2037 15.5784 20.4965 15.686 20.0571 16.1231L19.5365 16.6415L18.93 16.0327C19.5365 16.6415 19.5353 16.6426 19.5342 16.6426L19.533 16.6449L19.5296 16.6483L19.5216 16.6552L19.5044 16.6712C19.4558 16.7156 19.4038 16.7562 19.3488 16.7925C19.2573 16.8531 19.136 16.9207 18.9838 16.9767C18.6748 17.0923 18.2652 17.1541 17.7594 17.0763C16.7673 16.9241 15.4525 16.2478 13.7052 14.5108C11.9591 12.7738 11.2771 11.467 11.1237 10.4761C11.0448 9.9703 11.1077 9.56065 11.2244 9.25169C11.2892 9.07807 11.3811 8.91584 11.4968 8.77109L11.5334 8.73105L11.5494 8.71388L11.5563 8.70702L11.5597 8.70358L11.562 8.70129L11.8915 8.37403C12.3813 7.88542 12.45 7.07642 11.9888 6.45965L10.5459 4.53268Z" fill="white"/>
</svg>
