<svg width="36" height="36" viewBox="0 0 36 36" fill="none" xmlns="http://www.w3.org/2000/svg">
<path d="M33.6181 7.95549C32.596 8.39535 31.5215 8.70165 30.4211 8.86681C30.9356 8.77862 31.6926 7.8526 31.9939 7.47779C32.4517 6.91241 32.8005 6.26699 33.0228 5.57431C33.0228 5.52286 33.0743 5.44937 33.0228 5.41262C32.9969 5.39847 32.9678 5.39106 32.9383 5.39106C32.9088 5.39106 32.8797 5.39847 32.8538 5.41262C31.6589 6.05967 30.3873 6.55352 29.0689 6.88249C29.0229 6.89653 28.974 6.89779 28.9274 6.88613C28.8808 6.87448 28.8382 6.85036 28.8043 6.81635C28.7017 6.69415 28.5912 6.57876 28.4736 6.47093C27.9358 5.98914 27.3258 5.59482 26.6656 5.30238C25.7746 4.93681 24.8121 4.77849 23.8508 4.83938C22.9182 4.89828 22.0076 5.14844 21.1757 5.57431C20.3565 6.0233 19.6366 6.63326 19.0591 7.36755C18.4516 8.12331 18.0131 9.0004 17.7729 9.93981C17.5749 10.8334 17.5525 11.7569 17.7068 12.6591C17.7068 12.8134 17.7068 12.8354 17.5745 12.8134C12.3344 12.0417 8.03509 10.1823 4.52211 6.19165C4.36777 6.01527 4.28693 6.01527 4.16199 6.19165C2.63333 8.51404 3.37561 12.1887 5.28644 14.004C5.54366 14.2465 5.80824 14.4817 6.08751 14.7022C5.21141 14.64 4.35671 14.4026 3.57404 14.004C3.42706 13.9084 3.34621 13.9599 3.33886 14.1363C3.31803 14.3808 3.31803 14.6267 3.33886 14.8712C3.49221 16.0431 3.95406 17.1533 4.67718 18.0882C5.4003 19.0231 6.35874 19.7491 7.45449 20.1921C7.72161 20.3065 7.99994 20.3927 8.28496 20.4494C7.47391 20.609 6.64207 20.6339 5.82294 20.5228C5.64655 20.4861 5.58041 20.5816 5.64655 20.7507C6.72691 23.6904 9.07134 24.587 10.7911 25.0868C11.0263 25.1235 11.2614 25.1235 11.526 25.1823C11.526 25.1823 11.526 25.1823 11.4819 25.2264C10.9748 26.1524 8.92436 26.7771 7.98364 27.1005C6.2666 27.7173 4.43591 27.953 2.61863 27.7913C2.33201 27.7472 2.26586 27.7546 2.19237 27.7913C2.11888 27.8281 2.19237 27.9089 2.27321 27.9824C2.64068 28.2249 3.00814 28.4381 3.39031 28.6439C4.52802 29.2644 5.73081 29.7573 6.97678 30.1137C13.4295 31.8923 20.6906 30.5841 25.5338 25.7703C29.3408 21.9927 30.6784 16.782 30.6784 11.564C30.6784 11.3656 30.9209 11.248 31.0605 11.1451C32.0237 10.3947 32.8728 9.5084 33.5814 8.51404C33.7041 8.36582 33.767 8.1771 33.7577 7.98489C33.7577 7.87465 33.7577 7.8967 33.6181 7.95549Z" fill="#C6A45A"/>
</svg>
