<svg width="24" height="25" viewBox="0 0 24 25" fill="none" xmlns="http://www.w3.org/2000/svg">
<path d="M19.5004 2.8999C19.9972 2.90011 20.3998 3.30337 20.3998 3.80029C20.3996 4.29704 19.9971 4.6995 19.5004 4.69971H19.1996V20.3003H19.5004C19.9972 20.3005 20.3997 20.7029 20.3998 21.1997C20.3998 21.6966 19.9972 22.0999 19.5004 22.1001H15.3002C14.8031 22.1001 14.3998 21.6968 14.3998 21.1997V18.1997C14.3997 17.7029 13.9972 17.3005 13.5004 17.3003H10.5004C10.0034 17.3003 9.60008 17.7027 9.59998 18.1997V21.1997C9.59998 21.6968 9.19664 22.1001 8.69958 22.1001H4.50037C4.00331 22.1001 3.59998 21.6968 3.59998 21.1997C3.60008 20.7027 4.00338 20.3003 4.50037 20.3003H4.80017V4.69971H4.50037C4.00344 4.69971 3.60019 4.29717 3.59998 3.80029C3.59998 3.30324 4.00331 2.8999 4.50037 2.8999H19.5004ZM9.00037 11.3003C8.669 11.3003 8.39978 11.5685 8.39978 11.8999V13.1001C8.39989 13.4314 8.66906 13.6997 9.00037 13.6997H10.1996C10.5309 13.6997 10.8001 13.4314 10.8002 13.1001V11.8999C10.8002 11.5685 10.531 11.3003 10.1996 11.3003H9.00037ZM13.8002 11.3003C13.4688 11.3003 13.1996 11.5685 13.1996 11.8999V13.1001C13.1997 13.4314 13.4689 13.6997 13.8002 13.6997H15.0004C15.3315 13.6995 15.5999 13.4312 15.6 13.1001V11.8999C15.6 11.5687 15.3316 11.3005 15.0004 11.3003H13.8002ZM9.00037 6.49951C8.669 6.49951 8.39978 6.76873 8.39978 7.1001V8.30029C8.39999 8.63148 8.66913 8.8999 9.00037 8.8999H10.1996C10.5308 8.8999 10.8 8.63148 10.8002 8.30029V7.1001C10.8002 6.76873 10.531 6.49951 10.1996 6.49951H9.00037ZM13.8002 6.49951C13.4688 6.49951 13.1996 6.76873 13.1996 7.1001V8.30029C13.1998 8.63148 13.4689 8.8999 13.8002 8.8999H15.0004C15.3314 8.89969 15.5998 8.63135 15.6 8.30029V7.1001C15.6 6.76886 15.3316 6.49972 15.0004 6.49951H13.8002Z" fill="white"/>
</svg>
