<svg width="43" height="48" viewBox="0 0 43 48" fill="none" xmlns="http://www.w3.org/2000/svg">
<path d="M40.0229 0.22406C41.247 0.22406 42.2397 1.21676 42.2397 2.44086C42.2395 3.66478 41.2469 4.65668 40.0229 4.65668H39.2847V43.0746H40.0229C41.247 43.0746 42.2397 44.0673 42.2397 45.2914C42.2396 46.5154 41.247 47.5073 40.0229 47.5073H29.6802C28.4561 47.5073 27.4635 46.5154 27.4634 45.2914V37.9028C27.4632 36.6789 26.4714 35.6871 25.2476 35.687H17.8589C16.6351 35.6871 15.6433 36.679 15.6431 37.9028V45.2914C15.643 46.5154 14.6503 47.5073 13.4263 47.5073H3.0835C1.85947 47.5073 0.866806 46.5154 0.866699 45.2914C0.866699 44.0673 1.8594 43.0746 3.0835 43.0746H3.82178V4.65668H3.0835C1.85953 4.65668 0.866903 3.66478 0.866699 2.44086C0.866699 1.21676 1.8594 0.22406 3.0835 0.22406H40.0229ZM14.1646 20.9106C13.3486 20.9107 12.6871 21.5722 12.687 22.3881V25.3432C12.687 26.1592 13.3486 26.8206 14.1646 26.8207H17.1196C17.9357 26.8207 18.5972 26.1593 18.5972 25.3432V22.3881C18.597 21.5722 17.9356 20.9106 17.1196 20.9106H14.1646ZM25.9868 20.9106C25.1708 20.9106 24.5094 21.5722 24.5093 22.3881V25.3432C24.5093 26.1593 25.1708 26.8207 25.9868 26.8207H28.9419C29.758 26.8207 30.4194 26.1593 30.4194 25.3432V22.3881C30.4193 21.5722 29.7579 20.9106 28.9419 20.9106H25.9868ZM14.1646 9.08929C13.3487 9.08939 12.6873 9.75104 12.687 10.5668V13.5229C12.6872 14.3387 13.3487 15.0003 14.1646 15.0004H17.1196C17.9356 15.0004 18.597 14.3388 18.5972 13.5229V10.5668C18.5969 9.75098 17.9355 9.08929 17.1196 9.08929H14.1646ZM25.9868 9.08929C25.1709 9.08929 24.5095 9.75098 24.5093 10.5668V13.5229C24.5095 14.3388 25.1709 15.0004 25.9868 15.0004H28.9419C29.7578 15.0004 30.4192 14.3388 30.4194 13.5229V10.5668C30.4192 9.75098 29.7578 9.08929 28.9419 9.08929H25.9868Z" fill="white"/>
</svg>
