<svg width="60" height="60" viewBox="0 0 60 60" fill="none" xmlns="http://www.w3.org/2000/svg">
<path d="M48.0231 6.224C49.2472 6.224 50.2399 7.2167 50.2399 8.4408C50.2397 9.66472 49.247 10.6566 48.0231 10.6566H47.2848V49.0746H48.0231C49.2472 49.0746 50.2399 50.0673 50.2399 51.2914C50.2398 52.5154 49.2471 53.5072 48.0231 53.5072H37.6803C36.4563 53.5072 35.4636 52.5154 35.4635 51.2914V43.9027C35.4633 42.6789 34.4715 41.687 33.2477 41.6869H25.859C24.6352 41.6871 23.6434 42.6789 23.6432 43.9027V51.2914C23.6431 52.5154 22.6504 53.5072 21.4264 53.5072H11.0836C9.85959 53.5072 8.86693 52.5154 8.86682 51.2914C8.86682 50.0673 9.85952 49.0746 11.0836 49.0746H11.8219V10.6566H11.0836C9.85965 10.6566 8.86703 9.66472 8.86682 8.4408C8.86682 7.2167 9.85952 6.224 11.0836 6.224H48.0231ZM22.1647 26.9105C21.3488 26.9106 20.6873 27.5722 20.6871 28.3881V31.3431C20.6871 32.1591 21.3487 32.8206 22.1647 32.8207H25.1198C25.9358 32.8207 26.5973 32.1592 26.5973 31.3431V28.3881C26.5972 27.5721 25.9357 26.9105 25.1198 26.9105H22.1647ZM33.9869 26.9105C33.171 26.9105 32.5095 27.5721 32.5094 28.3881V31.3431C32.5094 32.1592 33.1709 32.8207 33.9869 32.8207H36.942C37.7581 32.8207 38.4196 32.1592 38.4196 31.3431V28.3881C38.4194 27.5721 37.758 26.9105 36.942 26.9105H33.9869ZM22.1647 15.0892C21.3488 15.0893 20.6874 15.751 20.6871 16.5668V19.5228C20.6873 20.3387 21.3488 21.0003 22.1647 21.0004H25.1198C25.9357 21.0004 26.5971 20.3387 26.5973 19.5228V16.5668C26.597 15.7509 25.9357 15.0892 25.1198 15.0892H22.1647ZM33.9869 15.0892C33.171 15.0892 32.5096 15.7509 32.5094 16.5668V19.5228C32.5096 20.3387 33.171 21.0004 33.9869 21.0004H36.942C37.758 21.0004 38.4194 20.3387 38.4196 19.5228V16.5668C38.4193 15.7509 37.7579 15.0892 36.942 15.0892H33.9869Z" fill="white"/>
</svg>
