<svg width="46" height="46" viewBox="0 0 46 46" fill="none" xmlns="http://www.w3.org/2000/svg">
<path d="M24.4375 0C12.5062 0 2.875 9.63125 2.875 21.5625C2.875 26.45 4.45625 31.05 7.475 34.7875L4.45625 43.9875C4.3125 44.5625 4.45625 45.1375 4.8875 45.5688C5.03125 45.8563 5.4625 46 5.75 46C5.89375 46 6.18125 46 6.325 45.8563L16.2438 41.4C18.8313 42.55 21.5625 43.125 24.4375 43.125C36.3688 43.125 46 33.4938 46 21.5625C46 9.63125 36.3688 0 24.4375 0Z" fill="#25D366"/>
<path d="M36.9438 29.4688C36.3688 31.1938 34.2125 32.6313 32.3438 32.9187C31.9125 33.0625 31.4813 33.0625 30.9063 33.0625C29.7563 33.0625 28.0313 32.775 25.0125 31.4812C21.5625 30.0437 18.1125 27.025 15.3813 23.1438V23C14.5187 21.7063 12.9375 19.2625 12.9375 16.675C12.9375 13.5125 14.5188 11.9313 15.0938 11.2125C15.8125 10.4938 16.8188 10.0625 17.9688 10.0625C18.2563 10.0625 18.4 10.0625 18.6875 10.0625C19.6938 10.0625 20.4125 10.35 21.1313 11.7875L21.7063 12.9375C22.1375 14.0875 22.7125 15.3813 22.8563 15.525C23.2875 16.3875 23.2875 17.1062 22.8563 17.825C22.7125 18.2562 22.425 18.5438 22.1375 18.8313C21.9938 19.1188 21.85 19.2625 21.7063 19.2625C21.5625 19.4062 21.5625 19.4063 21.4188 19.55C21.85 20.2688 22.7125 21.5625 23.8625 22.5687C25.5875 24.15 26.8813 24.5812 27.6 24.8687C27.8875 24.5812 28.175 24.0062 28.6063 23.575L28.75 23.2875C29.4688 22.2813 30.6188 21.9938 31.7688 22.425C32.3438 22.7125 35.5063 24.15 35.5063 24.15L35.7938 24.2937C36.225 24.5812 36.8 24.725 37.0875 25.3C37.6625 26.5938 37.2313 28.4625 36.9438 29.4688Z" fill="white"/>
</svg>
