<svg width="24" height="25" viewBox="0 0 24 25" fill="none" xmlns="http://www.w3.org/2000/svg">
<g clip-path="url(#clip0_153_183)">
<mask id="path-1-inside-1_153_183" fill="white">
<path d="M19.3664 2.34825H18.4712V1.44242C18.4712 0.924872 18.0516 0.505341 17.5341 0.505341C17.0165 0.505341 16.597 0.924872 16.597 1.44242V2.34825H7.40295V1.44242C7.40295 0.924872 6.98342 0.505341 6.46587 0.505341C5.94832 0.505341 5.52879 0.924872 5.52879 1.44242V2.34825H4.63364C2.07864 2.34825 0 4.42689 0 6.98185V19.861C0 22.416 2.07864 24.4947 4.63364 24.4947H19.3664C21.9214 24.4947 24 22.416 24 19.861V6.98185C24 4.42689 21.9214 2.34825 19.3664 2.34825ZM4.63364 4.22242H5.52879V6.04973C5.52879 6.56728 5.94832 6.98681 6.46587 6.98681C6.98342 6.98681 7.40295 6.56728 7.40295 6.04973V4.22242H16.597V6.04973C16.597 6.56728 17.0166 6.98681 17.5341 6.98681C18.0517 6.98681 18.4712 6.56728 18.4712 6.04973V4.22242H19.3664C20.8879 4.22242 22.1258 5.46031 22.1258 6.98185V7.87704H1.87417V6.98185C1.87417 5.46031 3.11205 4.22242 4.63364 4.22242ZM19.3664 22.6205H4.63364C3.11205 22.6205 1.87417 21.3826 1.87417 19.861V9.75121H22.1258V19.861C22.1258 21.3826 20.8879 22.6205 19.3664 22.6205ZM8.32443 13.4371C8.32443 13.9546 7.9049 14.3742 7.38735 14.3742H5.54444C5.02689 14.3742 4.60735 13.9546 4.60735 13.4371C4.60735 12.9195 5.02689 12.5 5.54444 12.5H7.38735C7.90485 12.5 8.32443 12.9195 8.32443 13.4371ZM19.3927 13.4371C19.3927 13.9546 18.9732 14.3742 18.4556 14.3742H16.6127C16.0951 14.3742 15.6756 13.9546 15.6756 13.4371C15.6756 12.9195 16.0951 12.5 16.6127 12.5H18.4556C18.9731 12.5 19.3927 12.9195 19.3927 13.4371ZM13.8532 13.4371C13.8532 13.9546 13.4337 14.3742 12.9161 14.3742H11.0732C10.5557 14.3742 10.1361 13.9546 10.1361 13.4371C10.1361 12.9195 10.5557 12.5 11.0732 12.5H12.9161C13.4336 12.5 13.8532 12.9195 13.8532 13.4371ZM8.32443 18.9659C8.32443 19.4834 7.9049 19.903 7.38735 19.903H5.54444C5.02689 19.903 4.60735 19.4834 4.60735 18.9659C4.60735 18.4483 5.02689 18.0288 5.54444 18.0288H7.38735C7.90485 18.0288 8.32443 18.4483 8.32443 18.9659ZM19.3927 18.9659C19.3927 19.4834 18.9732 19.903 18.4556 19.903H16.6127C16.0951 19.903 15.6756 19.4834 15.6756 18.9659C15.6756 18.4483 16.0951 18.0288 16.6127 18.0288H18.4556C18.9731 18.0288 19.3927 18.4483 19.3927 18.9659ZM13.8532 18.9659C13.8532 19.4834 13.4337 19.903 12.9161 19.903H11.0732C10.5557 19.903 10.1361 19.4834 10.1361 18.9659C10.1361 18.4483 10.5557 18.0288 11.0732 18.0288H12.9161C13.4336 18.0288 13.8532 18.4483 13.8532 18.9659Z"/>
</mask>
<path d="M19.3664 2.34825H18.4712V1.44242C18.4712 0.924872 18.0516 0.505341 17.5341 0.505341C17.0165 0.505341 16.597 0.924872 16.597 1.44242V2.34825H7.40295V1.44242C7.40295 0.924872 6.98342 0.505341 6.46587 0.505341C5.94832 0.505341 5.52879 0.924872 5.52879 1.44242V2.34825H4.63364C2.07864 2.34825 0 4.42689 0 6.98185V19.861C0 22.416 2.07864 24.4947 4.63364 24.4947H19.3664C21.9214 24.4947 24 22.416 24 19.861V6.98185C24 4.42689 21.9214 2.34825 19.3664 2.34825ZM4.63364 4.22242H5.52879V6.04973C5.52879 6.56728 5.94832 6.98681 6.46587 6.98681C6.98342 6.98681 7.40295 6.56728 7.40295 6.04973V4.22242H16.597V6.04973C16.597 6.56728 17.0166 6.98681 17.5341 6.98681C18.0517 6.98681 18.4712 6.56728 18.4712 6.04973V4.22242H19.3664C20.8879 4.22242 22.1258 5.46031 22.1258 6.98185V7.87704H1.87417V6.98185C1.87417 5.46031 3.11205 4.22242 4.63364 4.22242ZM19.3664 22.6205H4.63364C3.11205 22.6205 1.87417 21.3826 1.87417 19.861V9.75121H22.1258V19.861C22.1258 21.3826 20.8879 22.6205 19.3664 22.6205ZM8.32443 13.4371C8.32443 13.9546 7.9049 14.3742 7.38735 14.3742H5.54444C5.02689 14.3742 4.60735 13.9546 4.60735 13.4371C4.60735 12.9195 5.02689 12.5 5.54444 12.5H7.38735C7.90485 12.5 8.32443 12.9195 8.32443 13.4371ZM19.3927 13.4371C19.3927 13.9546 18.9732 14.3742 18.4556 14.3742H16.6127C16.0951 14.3742 15.6756 13.9546 15.6756 13.4371C15.6756 12.9195 16.0951 12.5 16.6127 12.5H18.4556C18.9731 12.5 19.3927 12.9195 19.3927 13.4371ZM13.8532 13.4371C13.8532 13.9546 13.4337 14.3742 12.9161 14.3742H11.0732C10.5557 14.3742 10.1361 13.9546 10.1361 13.4371C10.1361 12.9195 10.5557 12.5 11.0732 12.5H12.9161C13.4336 12.5 13.8532 12.9195 13.8532 13.4371ZM8.32443 18.9659C8.32443 19.4834 7.9049 19.903 7.38735 19.903H5.54444C5.02689 19.903 4.60735 19.4834 4.60735 18.9659C4.60735 18.4483 5.02689 18.0288 5.54444 18.0288H7.38735C7.90485 18.0288 8.32443 18.4483 8.32443 18.9659ZM19.3927 18.9659C19.3927 19.4834 18.9732 19.903 18.4556 19.903H16.6127C16.0951 19.903 15.6756 19.4834 15.6756 18.9659C15.6756 18.4483 16.0951 18.0288 16.6127 18.0288H18.4556C18.9731 18.0288 19.3927 18.4483 19.3927 18.9659ZM13.8532 18.9659C13.8532 19.4834 13.4337 19.903 12.9161 19.903H11.0732C10.5557 19.903 10.1361 19.4834 10.1361 18.9659C10.1361 18.4483 10.5557 18.0288 11.0732 18.0288H12.9161C13.4336 18.0288 13.8532 18.4483 13.8532 18.9659Z" fill="white"/>
<path d="M18.4712 2.34825H16.4712V4.34825H18.4712V2.34825ZM16.597 2.34825V4.34825H18.597V2.34825H16.597ZM7.40295 2.34825H5.40295V4.34825H7.40295V2.34825ZM5.52879 2.34825V4.34825H7.52879V2.34825H5.52879ZM5.52879 4.22242H7.52879V2.22242H5.52879V4.22242ZM7.40295 4.22242V2.22242H5.40295V4.22242H7.40295ZM16.597 4.22242H18.597V2.22242H16.597V4.22242ZM18.4712 4.22242V2.22242H16.4712V4.22242H18.4712ZM22.1258 7.87704V9.87704H24.1258V7.87704H22.1258ZM1.87417 7.87704H-0.125835V9.87704H1.87417V7.87704ZM1.87417 9.75121V7.75121H-0.125835V9.75121H1.87417ZM22.1258 9.75121H24.1258V7.75121H22.1258V9.75121ZM19.3664 2.34825V0.348254H18.4712V2.34825V4.34825H19.3664V2.34825ZM18.4712 2.34825H20.4712V1.44242H18.4712H16.4712V2.34825H18.4712ZM18.4712 1.44242H20.4712C20.4712 -0.179697 19.1562 -1.49466 17.5341 -1.49466V0.505341V2.50534C16.9471 2.50534 16.4712 2.02944 16.4712 1.44242H18.4712ZM17.5341 0.505341V-1.49466C15.912 -1.49466 14.597 -0.179697 14.597 1.44242H16.597H18.597C18.597 2.02944 18.1211 2.50534 17.5341 2.50534V0.505341ZM16.597 1.44242H14.597V2.34825H16.597H18.597V1.44242H16.597ZM16.597 2.34825V0.348254H7.40295V2.34825V4.34825H16.597V2.34825ZM7.40295 2.34825H9.40295V1.44242H7.40295H5.40295V2.34825H7.40295ZM7.40295 1.44242H9.40295C9.40295 -0.179697 8.08799 -1.49466 6.46587 -1.49466V0.505341V2.50534C5.87885 2.50534 5.40295 2.02944 5.40295 1.44242H7.40295ZM6.46587 0.505341V-1.49466C4.84375 -1.49466 3.52879 -0.179697 3.52879 1.44242H5.52879H7.52879C7.52879 2.02944 7.05289 2.50534 6.46587 2.50534V0.505341ZM5.52879 1.44242H3.52879V2.34825H5.52879H7.52879V1.44242H5.52879ZM5.52879 2.34825V0.348254H4.63364V2.34825V4.34825H5.52879V2.34825ZM4.63364 2.34825V0.348254C0.97408 0.348254 -2 3.32231 -2 6.98185H0H2C2 5.53147 3.18319 4.34825 4.63364 4.34825V2.34825ZM0 6.98185H-2V19.861H0H2V6.98185H0ZM0 19.861H-2C-2 23.5206 0.974066 26.4947 4.63364 26.4947V24.4947V22.4947C3.18321 22.4947 2 21.3114 2 19.861H0ZM4.63364 24.4947V26.4947H19.3664V24.4947V22.4947H4.63364V24.4947ZM19.3664 24.4947V26.4947C23.0259 26.4947 26 23.5206 26 19.861H24H22C22 21.3115 20.8168 22.4947 19.3664 22.4947V24.4947ZM24 19.861H26V6.98185H24H22V19.861H24ZM24 6.98185H26C26 3.32231 23.0259 0.348254 19.3664 0.348254V2.34825V4.34825C20.8168 4.34825 22 5.53147 22 6.98185H24ZM4.63364 4.22242V6.22242H5.52879V4.22242V2.22242H4.63364V4.22242ZM5.52879 4.22242H3.52879V6.04973H5.52879H7.52879V4.22242H5.52879ZM5.52879 6.04973H3.52879C3.52879 7.67185 4.84375 8.98681 6.46587 8.98681V6.98681V4.98681C7.05289 4.98681 7.52879 5.46271 7.52879 6.04973H5.52879ZM6.46587 6.98681V8.98681C8.08799 8.98681 9.40295 7.67185 9.40295 6.04973H7.40295H5.40295C5.40295 5.46271 5.87885 4.98681 6.46587 4.98681V6.98681ZM7.40295 6.04973H9.40295V4.22242H7.40295H5.40295V6.04973H7.40295ZM7.40295 4.22242V6.22242H16.597V4.22242V2.22242H7.40295V4.22242ZM16.597 4.22242H14.597V6.04973H16.597H18.597V4.22242H16.597ZM16.597 6.04973H14.597C14.597 7.67185 15.912 8.98681 17.5341 8.98681V6.98681V4.98681C18.1211 4.98681 18.597 5.46271 18.597 6.04973H16.597ZM17.5341 6.98681V8.98681C19.1562 8.98681 20.4712 7.67185 20.4712 6.04973H18.4712H16.4712C16.4712 5.46271 16.9471 4.98681 17.5341 4.98681V6.98681ZM18.4712 6.04973H20.4712V4.22242H18.4712H16.4712V6.04973H18.4712ZM18.4712 4.22242V6.22242H19.3664V4.22242V2.22242H18.4712V4.22242ZM19.3664 4.22242V6.22242C19.7834 6.22242 20.1258 6.56487 20.1258 6.98185H22.1258H24.1258C24.1258 4.35574 21.9925 2.22242 19.3664 2.22242V4.22242ZM22.1258 6.98185H20.1258V7.87704H22.1258H24.1258V6.98185H22.1258ZM22.1258 7.87704V5.87704H1.87417V7.87704V9.87704H22.1258V7.87704ZM1.87417 7.87704H3.87417V6.98185H1.87417H-0.125835V7.87704H1.87417ZM1.87417 6.98185H3.87417C3.87417 6.5649 4.2166 6.22242 4.63364 6.22242V4.22242V2.22242C2.0075 2.22242 -0.125835 4.35571 -0.125835 6.98185H1.87417ZM19.3664 22.6205V20.6205H4.63364V22.6205V24.6205H19.3664V22.6205ZM4.63364 22.6205V20.6205C4.21662 20.6205 3.87417 20.278 3.87417 19.861H1.87417H-0.125835C-0.125835 22.4872 2.00748 24.6205 4.63364 24.6205V22.6205ZM1.87417 19.861H3.87417V9.75121H1.87417H-0.125835V19.861H1.87417ZM1.87417 9.75121V11.7512H22.1258V9.75121V7.75121H1.87417V9.75121ZM22.1258 9.75121H20.1258V19.861H22.1258H24.1258V9.75121H22.1258ZM22.1258 19.861H20.1258C20.1258 20.278 19.7834 20.6205 19.3664 20.6205V22.6205V24.6205C21.9925 24.6205 24.1258 22.4872 24.1258 19.861H22.1258ZM8.32443 13.4371H6.32443C6.32443 12.8501 6.80033 12.3742 7.38735 12.3742V14.3742V16.3742C9.00947 16.3742 10.3244 15.0592 10.3244 13.4371H8.32443ZM7.38735 14.3742V12.3742H5.54444V14.3742V16.3742H7.38735V14.3742ZM5.54444 14.3742V12.3742C6.13146 12.3742 6.60735 12.8501 6.60735 13.4371H4.60735H2.60735C2.60735 15.0592 3.92232 16.3742 5.54444 16.3742V14.3742ZM4.60735 13.4371H6.60735C6.60735 14.0241 6.13146 14.5 5.54444 14.5V12.5V10.5C3.92232 10.5 2.60735 11.815 2.60735 13.4371H4.60735ZM5.54444 12.5V14.5H7.38735V12.5V10.5H5.54444V12.5ZM7.38735 12.5V14.5C6.80035 14.5 6.32443 14.0242 6.32443 13.4371H8.32443H10.3244C10.3244 11.8149 9.00936 10.5 7.38735 10.5V12.5ZM19.3927 13.4371H17.3927C17.3927 12.8501 17.8686 12.3742 18.4556 12.3742V14.3742V16.3742C20.0777 16.3742 21.3927 15.0592 21.3927 13.4371H19.3927ZM18.4556 14.3742V12.3742H16.6127V14.3742V16.3742H18.4556V14.3742ZM16.6127 14.3742V12.3742C17.1997 12.3742 17.6756 12.8501 17.6756 13.4371H15.6756H13.6756C13.6756 15.0592 14.9906 16.3742 16.6127 16.3742V14.3742ZM15.6756 13.4371H17.6756C17.6756 14.0241 17.1997 14.5 16.6127 14.5V12.5V10.5C14.9906 10.5 13.6756 11.815 13.6756 13.4371H15.6756ZM16.6127 12.5V14.5H18.4556V12.5V10.5H16.6127V12.5ZM18.4556 12.5V14.5C17.8686 14.5 17.3927 14.0242 17.3927 13.4371H19.3927H21.3927C21.3927 11.8149 20.0776 10.5 18.4556 10.5V12.5ZM13.8532 13.4371H11.8532C11.8532 12.8501 12.3291 12.3742 12.9161 12.3742V14.3742V16.3742C14.5383 16.3742 15.8532 15.0592 15.8532 13.4371H13.8532ZM12.9161 14.3742V12.3742H11.0732V14.3742V16.3742H12.9161V14.3742ZM11.0732 14.3742V12.3742C11.6602 12.3742 12.1361 12.8501 12.1361 13.4371H10.1361H8.13614C8.13614 15.0592 9.4511 16.3742 11.0732 16.3742V14.3742ZM10.1361 13.4371H12.1361C12.1361 14.0241 11.6602 14.5 11.0732 14.5V12.5V10.5C9.4511 10.5 8.13614 11.815 8.13614 13.4371H10.1361ZM11.0732 12.5V14.5H12.9161V12.5V10.5H11.0732V12.5ZM12.9161 12.5V14.5C12.3291 14.5 11.8532 14.0242 11.8532 13.4371H13.8532H15.8532C15.8532 11.8149 14.5381 10.5 12.9161 10.5V12.5ZM8.32443 18.9659H6.32443C6.32443 18.3788 6.80033 17.903 7.38735 17.903V19.903V21.903C9.00947 21.903 10.3244 20.588 10.3244 18.9659H8.32443ZM7.38735 19.903V17.903H5.54444V19.903V21.903H7.38735V19.903ZM5.54444 19.903V17.903C6.13146 17.903 6.60735 18.3788 6.60735 18.9659H4.60735H2.60735C2.60735 20.588 3.92232 21.903 5.54444 21.903V19.903ZM4.60735 18.9659H6.60735C6.60735 19.5529 6.13146 20.0288 5.54444 20.0288V18.0288V16.0288C3.92232 16.0288 2.60735 17.3437 2.60735 18.9659H4.60735ZM5.54444 18.0288V20.0288H7.38735V18.0288V16.0288H5.54444V18.0288ZM7.38735 18.0288V20.0288C6.80035 20.0288 6.32443 19.553 6.32443 18.9659H8.32443H10.3244C10.3244 17.3437 9.00936 16.0288 7.38735 16.0288V18.0288ZM19.3927 18.9659H17.3927C17.3927 18.3788 17.8686 17.903 18.4556 17.903V19.903V21.903C20.0777 21.903 21.3927 20.588 21.3927 18.9659H19.3927ZM18.4556 19.903V17.903H16.6127V19.903V21.903H18.4556V19.903ZM16.6127 19.903V17.903C17.1997 17.903 17.6756 18.3788 17.6756 18.9659H15.6756H13.6756C13.6756 20.588 14.9906 21.903 16.6127 21.903V19.903ZM15.6756 18.9659H17.6756C17.6756 19.5529 17.1997 20.0288 16.6127 20.0288V18.0288V16.0288C14.9906 16.0288 13.6756 17.3437 13.6756 18.9659H15.6756ZM16.6127 18.0288V20.0288H18.4556V18.0288V16.0288H16.6127V18.0288ZM18.4556 18.0288V20.0288C17.8686 20.0288 17.3927 19.553 17.3927 18.9659H19.3927H21.3927C21.3927 17.3437 20.0776 16.0288 18.4556 16.0288V18.0288ZM13.8532 18.9659H11.8532C11.8532 18.3788 12.3291 17.903 12.9161 17.903V19.903V21.903C14.5383 21.903 15.8532 20.588 15.8532 18.9659H13.8532ZM12.9161 19.903V17.903H11.0732V19.903V21.903H12.9161V19.903ZM11.0732 19.903V17.903C11.6602 17.903 12.1361 18.3788 12.1361 18.9659H10.1361H8.13614C8.13614 20.588 9.4511 21.903 11.0732 21.903V19.903ZM10.1361 18.9659H12.1361C12.1361 19.5529 11.6602 20.0288 11.0732 20.0288V18.0288V16.0288C9.4511 16.0288 8.13614 17.3437 8.13614 18.9659H10.1361ZM11.0732 18.0288V20.0288H12.9161V18.0288V16.0288H11.0732V18.0288ZM12.9161 18.0288V20.0288C12.3291 20.0288 11.8532 19.553 11.8532 18.9659H13.8532H15.8532C15.8532 17.3437 14.5381 16.0288 12.9161 16.0288V18.0288Z" fill="white" mask="url(#path-1-inside-1_153_183)"/>
</g>
<defs>
<clipPath id="clip0_153_183">
<rect width="24" height="24" fill="white" transform="translate(0 0.5)"/>
</clipPath>
</defs>
</svg>
