<svg width="20" height="20" viewBox="0 0 20 20" fill="none" xmlns="http://www.w3.org/2000/svg">
<path fill-rule="evenodd" clip-rule="evenodd" d="M7.52751 7.09489H11.0206V8.83486C11.5238 7.83414 12.8142 6.935 14.7526 6.935C18.4687 6.935 19.3509 8.92703 19.3509 12.5819V19.3509H15.5888V13.4143C15.5888 11.3329 15.0856 10.1591 13.8046 10.1591C12.0279 10.1591 11.2896 11.4241 11.2896 13.4133V19.3509H7.52751V7.09489ZM1.07644 19.191H4.83855V6.935H1.07644V19.191ZM5.37747 2.9387C5.37761 3.25404 5.31507 3.56625 5.19349 3.85721C5.07191 4.14816 4.89371 4.41205 4.66925 4.63353C4.21442 5.08557 3.59876 5.3386 2.9575 5.33704C2.31736 5.33661 1.70313 5.08423 1.24762 4.63447C1.02397 4.41224 0.846378 4.14805 0.725011 3.85706C0.603643 3.56607 0.540889 3.25399 0.540344 2.9387C0.540344 2.30197 0.794286 1.6925 1.24856 1.24293C1.70367 0.79257 2.31816 0.540078 2.95844 0.54036C3.59988 0.54036 4.21498 0.793361 4.66925 1.24293C5.12259 1.6925 5.37747 2.30197 5.37747 2.9387Z" fill="#C6A45A"/>
</svg>
